<?xml version="1.0" encoding="UTF-8"?>
<!DOCTYPE svg PUBLIC "-//W3C//DTD SVG 1.0//EN" "http://www.w3.org/TR/2001/REC-SVG-20010904/DTD/svg10.dtd">
<!-- Creator: CorelDRAW -->
<svg xmlns="http://www.w3.org/2000/svg" xml:space="preserve" width="20mm" height="15mm" version="1.0" style="shape-rendering:geometricPrecision; text-rendering:geometricPrecision; image-rendering:optimizeQuality; fill-rule:evenodd; clip-rule:evenodd"
viewBox="0 0 2000 1500"
 xmlns:xlink="http://www.w3.org/1999/xlink"
 xmlns:xodm="http://www.corel.com/coreldraw/odm/2003">
 <defs>
  <style type="text/css">
   <![CDATA[
    .fil0 {fill:#D20B19}
    .fil1 {fill:#FEFEFE;fill-rule:nonzero}
   ]]>
  </style>
 </defs>
 <g id="Camada_x0020_1">
  <metadata id="CorelCorpID_0Corel-Layer"/>
  <rect class="fil0" x="-90.72" y="-58.86" width="2166.37" height="1624.78"/>
  <path class="fil1" d="M320.51 583.96c-9.01,2.41 -15.82,8.71 -18.53,17.06 -0.51,1.58 -14.1,68.26 -30.21,148.14 -27.18,134.73 -29.3,145.49 -29.3,148.9 0,7.25 2.16,12.52 7.32,17.72 2.53,2.57 3.7,3.45 6.23,4.69 5.86,2.82 11.28,3.59 17.14,2.38 8.57,-1.76 15.6,-7.65 18.97,-15.86 0.51,-1.31 2.74,-11.35 5.45,-24.64 2.53,-12.34 4.69,-22.89 4.8,-23.44l0.22 -1.03 24.68 0c13.59,0 24.69,0.08 24.69,0.15 0,1.39 9.7,46.88 10.4,48.71 2.05,5.34 6.92,10.91 11.83,13.51 5.82,3 12.34,3.92 18.05,2.49 5.24,-1.28 8.86,-3.29 12.45,-6.96 5.13,-5.16 7.43,-10.69 7.4,-17.79 -0.04,-3.37 -2.24,-14.69 -26.81,-136.24 -14.72,-72.91 -28.09,-139.09 -29.7,-147.03 -3.55,-17.54 -4.03,-18.83 -8.9,-23.62 -3.4,-3.37 -6.48,-5.28 -10.65,-6.67 -4.07,-1.32 -11.5,-1.57 -15.53,-0.47zm14.06 172.85c3.88,27.69 7,50.39 6.96,50.46 -0.04,0.04 -6.48,0.04 -14.32,0l-14.28 -0.11 7.18 -51.27c3.91,-28.19 7.21,-50.86 7.28,-50.35 0.04,0.51 3.3,23.58 7.18,51.27l0 0zm408.51 -173c-8.46,2.23 -15.34,8.79 -18.09,17.17 -0.29,0.99 -13.77,67.17 -29.92,147.04 -22.08,109.35 -29.37,146.05 -29.52,148.68 -0.25,4.62 0.48,7.99 2.68,12.46 1.42,2.89 2.23,3.99 4.87,6.62 3.66,3.63 7.21,5.68 12.12,6.93 5.27,1.35 11.79,0.65 17.06,-1.84 5.09,-2.45 9.56,-6.84 12.02,-11.9 1.64,-3.37 2.05,-5.09 7.21,-30.5l4.17 -20.59 24.69 0.08 24.68 0.11 4.83 23.62c2.68,13 5.2,24.54 5.64,25.67 2.09,5.46 6.67,10.4 12.31,13.26 5.35,2.67 12.3,3.51 17.76,2.08 9.23,-2.34 15.71,-8.31 18.57,-17.02 0.84,-2.53 0.95,-3.56 0.95,-7.51l0 -4.58 -29.33 -145.2c-16.15,-79.88 -29.63,-146.05 -29.96,-147.04 -2.75,-8.68 -9.63,-15.12 -18.6,-17.39 -3.56,-0.92 -11.03,-0.99 -14.14,-0.15l0 0zm14.47 172.08c3.73,26.99 6.88,49.63 7.03,50.25l0.18 1.21 -28.71 0 0.14 -1.21c1.4,-11.5 14.1,-100.42 14.29,-99.98 0.14,0.37 3.33,22.74 7.07,49.73zm181.64 -172.45c-9.23,1.32 -14.87,2.64 -20.88,4.87 -24.31,9.16 -42.74,28.97 -49.84,53.69 -0.73,2.42 -1.65,6.19 -2.09,8.42l-0.77 4.03 -0.14 95.58c-0.08,70.46 0,96.65 0.29,99.62 1.58,14.72 6.92,28.23 15.97,40.32 2.96,3.95 9.52,10.65 13.69,14.02 22.16,17.84 51.6,23.04 78.85,13.95 27.35,-9.11 48.12,-32.3 53.91,-60.2 1.35,-6.59 1.72,-11.61 1.57,-21.46 -0.15,-8.57 -0.18,-9.12 -1.14,-11.94 -2.08,-6.26 -6.84,-11.68 -12.89,-14.65 -4.39,-2.16 -7.61,-2.82 -13,-2.6 -7.14,0.26 -12.41,2.53 -17.39,7.4 -2.89,2.85 -4.76,5.75 -6.26,9.78 -0.96,2.52 -0.99,3.11 -1.29,11.83 -0.29,10.36 -0.73,12.81 -3.22,17.94 -5.05,10.55 -15.49,17.03 -27.35,17.03 -14.18,0 -26.22,-9.3 -29.89,-23.07l-0.84 -3.12 0 -91.73c0,-84.45 0.04,-91.96 0.62,-94.34 2.71,-11.65 11.36,-20.65 22.64,-23.62 4.21,-1.1 10.62,-1.1 14.79,0 8.68,2.31 15.93,8.17 19.81,15.97 2.05,4.06 3.01,7.83 3.3,12.7 0.11,2.09 0.47,4.98 0.77,6.45 1.68,8.06 8.42,15.38 16.81,18.24 4.13,1.42 10.47,1.64 14.75,0.58 9.6,-2.41 16.78,-9.45 19.16,-18.67 0.51,-1.98 0.69,-4 0.69,-7.18 -0.07,-20.69 -8.68,-41.13 -23.58,-56 -6.59,-6.59 -13.04,-11.2 -21.5,-15.41 -7.91,-3.96 -14.87,-6.23 -23.76,-7.77 -3.34,-0.58 -19.01,-1.06 -21.79,-0.66l0 0zm198.85 0.37c-8.35,2.01 -15.46,9.04 -18.09,17.91 -0.41,1.42 -13.96,67.97 -30.07,147.87 -26.84,133.23 -29.3,145.61 -29.3,148.87 0,4.36 0.63,6.96 2.64,11.06 2.16,4.4 6.52,8.75 10.91,10.91 7.91,3.89 15.61,4 23.26,0.26 6.15,-3 10.47,-7.65 12.96,-14.03 0.55,-1.39 10.29,-47.42 10.29,-48.63 0,-0.07 11.14,-0.15 24.72,-0.15 13.59,0 24.72,0.08 24.72,0.15 0,1.25 9.41,45.85 10.11,47.83 4.28,12.49 17.87,19.99 30.39,16.85 5.02,-1.29 8.68,-3.34 12.24,-6.93 5.16,-5.16 7.39,-10.58 7.36,-17.72 0,-3.48 -2.13,-14.28 -29.48,-149.67 -16.23,-80.28 -29.81,-146.93 -30.22,-148.1 -2.82,-8.06 -9.63,-14.14 -18.31,-16.37 -3.33,-0.84 -10.8,-0.92 -14.13,-0.11zm14.46 172.82c3.85,26.99 7.07,49.44 7.14,49.87l0.19 0.85 -28.79 0 7.14 -50.17c3.96,-27.62 7.22,-50.07 7.26,-49.92 0.03,0.18 3.22,22.38 7.06,49.37l0 0zm559.02 -173.15c-8.49,1.9 -15.12,7.07 -18.75,14.57 -2.49,5.31 -2.3,-7.76 -2.23,156.64l0.11 148.79 1.06 3.08c2.64,7.58 8.54,13.4 16.15,16 2.38,0.8 3.77,1.02 7.4,1.17 5.6,0.22 8.79,-0.44 13.4,-2.78 2.71,-1.36 3.96,-2.27 6.3,-4.62 3.26,-3.33 4.91,-5.82 6.34,-9.81l0.99 -2.67 0.11 -149.57 0.07 -149.6 -0.73 -2.74c-3.19,-11.5 -13.11,-18.79 -25.42,-18.68 -2.23,0.04 -4.39,0.11 -4.8,0.22zm-1240.28 0.69c-10.22,2.28 -17.72,9.82 -19.88,19.93 -0.41,2.01 -0.52,25.67 -0.52,149.63 0,104.15 0.11,147.88 0.41,149.42 0.8,4.5 3.22,9.19 6.44,12.63 4.98,5.31 11.43,8.02 19.15,8.02 7.55,0 12.75,-2.12 17.99,-7.32 3.44,-3.44 4.87,-5.64 6.44,-10.07l1.03 -2.93 0.18 -85.15 0.18 -85.14 14.17 32.41c7.81,17.83 25.13,57.53 38.57,88.22 13.4,30.69 24.79,56.47 25.27,57.31 2.3,3.92 6.88,8.17 10.98,10.11 7.33,3.48 16.74,3.48 23.84,-0.07 5.13,-2.57 9.67,-7.4 11.9,-12.67 2.31,-5.61 2.16,5.86 2.16,-154.11 0,-131.73 -0.07,-146.19 -0.58,-148.75 -2.02,-9.86 -8.94,-17.77 -18.28,-20.84 -2.6,-0.84 -3.51,-0.95 -7.87,-0.95 -4.32,-0.04 -5.31,0.11 -7.76,0.91 -4.36,1.43 -7.47,3.37 -10.77,6.67 -3.11,3.15 -4.98,6.04 -6.44,10.1l-0.85 2.38 -0.18 85.3 -0.18 85.32 -3.7 -8.6c-2.05,-4.73 -10.84,-24.98 -19.56,-45.01 -16.7,-38.45 -27.24,-62.77 -43.54,-100.34 -5.49,-12.6 -10.47,-23.77 -11.13,-24.87 -1.61,-2.71 -5.86,-6.88 -8.72,-8.57 -5.31,-3.11 -12.82,-4.32 -18.75,-2.97zm818.56 -0.03c-10.29,2.05 -18.75,10.58 -20.48,20.69 -0.29,1.72 -0.36,43.73 -0.29,150.51l0.11 148.14 1.03 2.93c2.71,7.73 8.53,13.51 16.18,16.15 3.89,1.32 10.44,1.65 14.65,0.69 8.21,-1.79 15.46,-8.42 18.35,-16.69l1.06 -3.08 0.11 -54.27 0.07 -54.28 22.64 -0.14 22.59 -0.11 4.03 -0.99c11.1,-2.71 20.84,-7.51 30.18,-14.87 3.91,-3.08 10.58,-10.04 14.02,-14.61 11.46,-15.2 18.24,-35.01 20.11,-58.74 0.58,-7.44 0.22,-31.13 -0.55,-37.29 -2.97,-23.36 -10.18,-41.82 -22.09,-56.58 -11.68,-14.5 -28.49,-24.86 -44.6,-27.46 -4.61,-0.77 -73.35,-0.73 -77.12,0l0 0zm70.78 51.34c4.58,1.83 9.86,6.23 13.01,10.92 4.72,6.99 8.02,17.17 9.22,28.38 0.59,5.49 0.96,16.84 0.52,16.84 -0.22,0 -0.44,2.38 -0.59,5.94 -0.92,23.25 -8.42,39.14 -21.28,44.97l-2.41 1.1 -37.72 0 0 -108.77 18.86 0c16.84,0 19,0.07 20.39,0.62zm131.4 -51.34c-9.3,1.87 -16.77,8.86 -19.63,18.31 -0.66,2.12 -0.69,8.2 -0.77,149.78 -0.11,159.05 -0.22,150.44 1.72,155.57 2.49,6.56 8.57,12.38 15.46,14.8 3.62,1.28 10.29,1.57 14.39,0.65 7.32,-1.61 14.17,-7.03 17.54,-13.87 2.57,-5.17 2.42,-1.51 2.42,-61.86l0 -54.46 28.42 0 25.19 56.29c13.88,30.98 26.08,57.97 27.07,59.99 1.57,3.11 2.34,4.17 5.16,6.96 5.35,5.31 10.58,7.5 18.05,7.5 4.4,0 6.78,-0.44 9.85,-1.83 7.22,-3.26 12.75,-9.56 14.76,-16.84 1.1,-3.92 1.06,-9.56 -0.07,-13.41 -0.48,-1.61 -11.87,-27.68 -25.31,-58.01l-24.46 -55.11 1.98 -1.65c6.41,-5.38 12.96,-12.71 17.25,-19.22 4.57,-7.04 9.41,-17.91 11.94,-26.92 3.88,-13.95 5.31,-25.23 5.31,-42.85 0,-13 -0.3,-17.1 -1.84,-26.18 -2.27,-13.55 -4.79,-21.83 -9.63,-31.86 -4.65,-9.64 -9.66,-16.78 -16.7,-23.81 -10.69,-10.73 -23.4,-17.87 -38.19,-21.5 -3.15,-0.8 -3.7,-0.8 -40.36,-0.87 -29.51,-0.08 -37.64,0 -39.55,0.4l0 0zm73.24 51.74c4.62,1.98 9.05,5.72 12.56,10.55 3.52,4.91 6.71,13.41 8.43,22.67 0.73,4.07 0.8,5.46 0.8,18.13 -0.03,12.3 -0.11,14.28 -0.84,18.89 -2.89,18.5 -9.85,29.92 -21.31,34.98l-2.02 0.88 -19.48 0.11 -19.52 0.11 0 -107.34 19.52 0 19.48 0.04 2.38 0.98 0 0z"/>
 </g>
</svg>
