<?xml version="1.0" encoding="UTF-8"?>
<!DOCTYPE svg PUBLIC "-//W3C//DTD SVG 1.0//EN" "http://www.w3.org/TR/2001/REC-SVG-20010904/DTD/svg10.dtd">
<!-- Creator: CorelDRAW -->
<svg xmlns="http://www.w3.org/2000/svg" xml:space="preserve" width="20mm" height="15mm" version="1.0" style="shape-rendering:geometricPrecision; text-rendering:geometricPrecision; image-rendering:optimizeQuality; fill-rule:evenodd; clip-rule:evenodd"
viewBox="0 0 2000 1500"
 xmlns:xlink="http://www.w3.org/1999/xlink"
 xmlns:xodm="http://www.corel.com/coreldraw/odm/2003">
 <defs>
  <style type="text/css">
   <![CDATA[
    .fil0 {fill:#F2F3F3}
    .fil1 {fill:black;fill-rule:nonzero}
   ]]>
  </style>
 </defs>
 <g id="Camada_x0020_1">
  <metadata id="CorelCorpID_0Corel-Layer"/>
  <rect class="fil0" x="-90.84" y="-58.95" width="2166.61" height="1624.96"/>
  <path class="fil1" d="M1595.4 631.03c-0.81,0.07 -3.37,0.33 -5.68,0.55 -50.31,4.65 -88.47,29.4 -105.1,68.19 -11.5,26.87 -13.36,63.2 -4.72,91.8 6.81,22.56 19.33,41.35 37.09,55.59 19.23,15.46 42.41,24.61 71.27,28.13 6.66,0.8 27.24,1.13 35.26,0.55 30.84,-2.27 55.85,-10.66 75.4,-25.38 22.74,-17.14 36.92,-41.68 41.82,-72.51 2.16,-13.29 2.31,-33.14 0.37,-46.98 -3.59,-26.11 -13.18,-46.95 -29.22,-63.47 -19.78,-20.36 -46.4,-31.89 -83.17,-35.99 -3.48,-0.37 -30.25,-0.77 -33.32,-0.48l0 0zm30.94 28.89c29.59,3.19 50.94,13.33 65.15,30.98 9.48,11.72 15.42,27.03 17.8,45.74 0.84,6.41 1.13,20.18 0.58,26.92 -1.21,15.01 -4.14,26.62 -9.56,37.72 -4.21,8.64 -8.67,14.76 -15.82,21.6 -14.5,13.92 -34.42,21.87 -61.26,24.39 -6.92,0.66 -22.6,0.55 -29.33,-0.18 -21.72,-2.34 -39.85,-9.16 -54.2,-20.4 -3.99,-3.15 -11.43,-10.55 -14.14,-14.06 -10.62,-13.95 -16.59,-30.14 -18.27,-49.62 -0.48,-5.53 -0.26,-18.93 0.4,-24.54 5.68,-47.82 36.81,-75.14 90.05,-79.1 5.93,-0.44 22.27,-0.11 28.6,0.55l0 0zm-1294.59 5.75c-6.78,15.38 -29.63,67.24 -50.79,115.25 -21.17,48.01 -38.49,87.41 -38.49,87.59 0,0.18 7.98,0.29 19.11,0.26l19.12 -0.11 14.87 -35.16 14.87 -35.15 101.4 0 14.64 35.23 14.65 35.26 37.87 0 -1.58 -3.77c-2.23,-5.35 -21.46,-50.94 -61.15,-145.09l-34.57 -82.03 -18.82 -0.11 -18.83 -0.07 -12.3 27.9 0 0zm50.17 58.92c10.51,25.89 19.11,47.21 19.11,47.35 0,0.11 -17.79,0.22 -39.58,0.22 -25.23,0 -39.52,-0.11 -39.44,-0.36 0.95,-2.79 40.46,-94.74 40.61,-94.56 0.11,0.15 8.82,21.46 19.3,47.35l0 0zm135.93 28.71l0 115.54 35.16 0 0 -98.14 34.31 0.07 34.31 0.11 36.26 48.96 36.25 49 42.74 0 -0.7 -1.02c-0.4,-0.55 -17.21,-23.07 -37.39,-50.06l-36.62 -49.04 3.92 -0.66c27.94,-4.65 47.31,-18.31 54.97,-38.82 3,-7.94 4.28,-16.58 3.95,-26.47 -0.4,-12.05 -3.07,-21.97 -8.27,-30.91 -8.72,-14.87 -25.35,-26.26 -44.72,-30.54 -14.68,-3.26 -21.9,-3.55 -95.1,-3.55l-59.07 0 0 115.53zm120.12 -89.53c15.38,0.62 24.6,2.85 33.03,7.94 3.37,2.02 8.31,6.49 10.69,9.67 8.61,11.43 10.03,29.77 3.3,42.01 -6.27,11.42 -18.35,18.12 -36.95,20.58 -6.45,0.84 -19.3,1.09 -56.29,1.09l-38.74 0 0 -81.66 38.56 0c21.16,0.04 42.07,0.18 46.4,0.37zm135.49 89.53l0 115.54 189.33 0 0 -27.1 -154.54 0 0 -78 130.37 0 0 -27.46 -130.37 0 0 -71.05 149.77 0 0 -27.46 -184.56 0 0 115.53zm241.33 -101.25l0 14.28 75.73 0.07 75.76 0.11 -82.32 85.88 -82.32 85.87 0 15.27 -0.04 15.31 209.84 0 0 -28.2 -83.86 -0.07 -83.86 -0.11 81.84 -86.94 81.85 -86.93 0 -28.82 -192.62 0 0 14.28 0 0zm248.65 0l0 14.28 75.69 0.07 75.69 0.11 -82.46 86.06 -82.47 86.06 0 30.21 209.83 0 0 -28.2 -83.68 -0.07 -83.67 -0.11 81.84 -86.94 81.85 -86.93 0 -28.82 -192.62 0 0 14.28 0 0z"/>
 </g>
</svg>
