<?xml version="1.0" encoding="UTF-8"?>
<!DOCTYPE svg PUBLIC "-//W3C//DTD SVG 1.0//EN" "http://www.w3.org/TR/2001/REC-SVG-20010904/DTD/svg10.dtd">
<!-- Creator: CorelDRAW -->
<svg xmlns="http://www.w3.org/2000/svg" xml:space="preserve" width="20mm" height="15mm" version="1.0" style="shape-rendering:geometricPrecision; text-rendering:geometricPrecision; image-rendering:optimizeQuality; fill-rule:evenodd; clip-rule:evenodd"
viewBox="0 0 2000 1500"
 xmlns:xlink="http://www.w3.org/1999/xlink"
 xmlns:xodm="http://www.corel.com/coreldraw/odm/2003">
 <defs>
  <style type="text/css">
   <![CDATA[
    .fil0 {fill:#FFFCE8}
    .fil1 {fill:#FFF212}
    .fil2 {fill:#ED3237}
    .fil4 {fill:#3E4095}
    .fil3 {fill:#3E4095;fill-rule:nonzero}
   ]]>
  </style>
 </defs>
 <g id="Camada_x0020_1">
  <metadata id="CorelCorpID_0Corel-Layer"/>
  <rect class="fil0" x="-26.88" y="-10.98" width="2038.69" height="1529.02"/>
  <g id="_2388681355696">
   <g>
    <g>
     <path class="fil1" d="M900.49 512.52c133.1,0 241.01,107.91 241.01,241.01 0,133.09 -107.91,241.01 -241.01,241.01 -133.09,0 -241.01,-107.92 -241.01,-241.01 0,-133.1 107.92,-241.01 241.01,-241.01z"/>
     <path class="fil2" d="M900.49 521.02c128.4,0 232.51,104.11 232.51,232.51 0,128.4 -104.11,232.5 -232.51,232.5 -128.4,0 -232.51,-104.1 -232.51,-232.5 0,-128.4 104.11,-232.51 232.51,-232.51z"/>
     <path class="fil1" d="M905.65 785.18c62.64,21.74 132.21,43.33 208.68,64.8 2.86,-6.34 5.44,-12.82 7.75,-19.42 -48.07,-15.11 -103.12,-45.08 -165.16,-89.91 -116.3,-81.08 -209.16,-101.84 -278.55,-62.27 -7.98,23.59 -12.3,48.87 -12.3,75.15 0,20.03 2.51,39.47 7.24,58.03 51.3,-47.12 128.75,-55.91 232.34,-26.38z"/>
    </g>
    <path class="fil3" d="M249.77 719.52c7.76,-12.08 10.43,-15.48 16,-21.05 7.28,14.78 9.46,24.68 9.46,41.17 0,17.9 -3.88,34.82 -11.4,48.64 -1.94,3.88 -4.12,7.52 -9.69,16.2l24.24 27.6c15.51,-18.14 20.85,-34.38 20.85,-62.46 0,-8.45 -0.49,-13.78 -2.43,-22.02l35.88 18.66c11.88,-6.78 16.24,-9.45 21.09,-13.09 13.09,-10.18 19.4,-21.05 19.4,-34.14 0,-12.08 -6.06,-24.68 -16,-33.86 -11.4,-10.18 -26.67,-15.51 -44.61,-15.51 -18.18,0 -32.73,4.85 -46.06,15.27 -5.09,-6.3 -5.82,-7.27 -11.15,-13.09l-5.33 6.3 10.42 12.57c-7.03,7.27 -10.67,12.6 -17.94,24.93l7.27 3.88zm22.55 -26.63c11.15,-7.72 20.12,-10.87 31.27,-10.87 20.36,0 33.45,10.39 33.45,26.39 0,17.65 -11.39,26.38 -42.42,31.95 -4.85,-17.45 -11.88,-32.2 -22.3,-47.47zm190.54 17.5c3.64,-2.19 5.09,-3.16 10.18,-7.76l-22.54 -26.43c-12.12,11.88 -19.15,15.76 -31.03,16.73 -3.15,-6.79 -5.58,-11.15 -9.7,-16.48l-7.76 5.57c2.91,5.34 3.88,7.03 5.58,10.18 -6.3,-1.21 -9.7,-2.18 -16.73,-5.09l-3.88 3.15c15.03,15.28 20.12,19.4 27.64,22.55 1.7,8.73 2.18,15.03 2.18,23.76 0,4.12 0,6.3 -0.24,10.91l-18.18 -15.03 -7.52 10.18 23.27 19.88c-2.9,10.9 -8.72,25.45 -14.54,35.15 -7.03,-6.55 -12.12,-8.97 -18.67,-8.97 -10.91,0 -19.63,9.69 -19.63,22.06 0,12.85 9.94,22.06 24.24,22.06 15.51,0 25.7,-9.7 34.42,-32.49 3.64,-9.21 5.82,-16.48 7.52,-26.18l20.85 17.7c5.09,16.48 13.33,33.21 22.78,46.06l24.25 -33.7c-10.91,-9.45 -15.76,-15.03 -21.09,-23.76 -8.25,-12.84 -12.85,-27.63 -12.85,-40.48 0,-8.48 1.45,-15.03 5.81,-27.88l-4.36 -1.69zm-33.45 47.99c0.48,-4.6 0.48,-7.51 0.48,-11.63 0,-10.67 -0.97,-20.85 -3.15,-30.55 3.88,0.49 6.55,0.73 9.94,0.73 7.52,0 12.61,-0.97 19.64,-3.39 -9.7,15.03 -13.34,27.63 -13.34,45.81 0,3.64 0.25,6.31 0.73,10.91l-14.3 -11.88zm150.06 65.7c34.18,-17.21 51.64,-41.94 51.64,-73.94 0,-29.82 -15.27,-53.09 -46.79,-71.03l7.76 -2.66 -1.21 -5.58c-9.46,1.7 -13.58,2.42 -18.67,3.64 -10.18,-2.91 -17.94,-3.88 -27.39,-3.88 -4.12,0 -7.76,0.24 -15.52,0.73l9.21 13.33c-14.78,10.18 -21.81,16.24 -28.6,24.97 -9.94,12.36 -15.03,26.66 -15.03,41.94 0,18.66 8.73,39.75 22.79,55.75 8.48,9.46 16.48,15.03 29.57,21.09l-6.3 2.67 2.66 5.33c8,-1.94 10.43,-2.66 15.03,-4.12 5.1,1.21 7.76,1.46 10.91,1.46 3.16,0 5.82,-0.25 14.06,-1.7l-4.12 -8zm-16.48 -31.51c-16.24,-2.91 -24.24,-6.79 -32.24,-16 -8.49,-9.46 -13.58,-22.79 -13.58,-35.64 0,-17.45 6.79,-30.79 25.46,-50.18l15.03 21.33c15.99,1.21 26.9,5.82 36.84,15.52 8.73,8.72 13.34,20.12 13.34,33.94 0,16 -6.79,32 -19.16,44.36 -3.63,3.63 -5.81,5.82 -12.6,11.88l-13.09 -25.21zm710.14 -123.4c-6.55,4.37 -8.97,6.55 -13.58,11.16 -14.54,-6.55 -20.6,-8.25 -30.79,-8.25 -36.6,0 -65.93,36.37 -65.93,82.43 0,45.09 31.03,79.27 72.48,79.27 2.67,0 7.76,-0.49 14.06,-1.22l42.18 -53.33 -4.85 -3.88c-15.75,17.94 -27.63,24.25 -45.57,24.25 -33.7,0 -58.18,-24.73 -58.18,-58.91 0,-32.97 20.6,-58.67 46.78,-58.67 7.76,0 13.34,1.46 24.25,6.79 -4.37,8.97 -6.06,15.51 -6.06,23.76 0,9.94 2.18,15.51 9.45,25.45 4.85,-16.97 6.55,-20.36 15.03,-29.09 3.64,4.36 4.12,5.09 8,9.94l8 -5.58c-3.15,-4.6 -3.64,-5.33 -6.79,-9.69 5.09,-3.88 5.82,-4.37 11.4,-7.52l-19.88 -26.91zm63.75 76.12c-4.61,-31.75 -11.15,-51.15 -23.51,-69.81l-4.37 2.66c4.85,16.97 6.06,23.28 6.06,32.97 0,16.49 -1.94,35.88 -5.09,52.61 -2.91,14.3 -6.06,23.75 -13.82,39.27l31.03 29.09c9.94,-27.15 12.12,-37.82 12.12,-56.24 0,-1.94 0,-3.64 -0.24,-6.79 11.4,6.06 21.09,9.21 29.09,9.21l3.64 0c4.61,21.34 12.36,34.91 30.3,53.82l4.85 -6.55c-10.91,-16.96 -13.09,-24.48 -15.76,-52.36 12.37,-4.36 26.67,-13.57 33.7,-21.33l-4.36 -6.55c-10.91,4.85 -16.25,6.55 -27.4,8.97 3.4,-16.48 9.7,-32 19.88,-49.45l-30.79 -32c-9.94,25.94 -13.81,46.06 -13.81,72.24 0,1.21 0,2.67 0.24,4.85 -2.67,-1.7 -4.61,-3.39 -6.79,-5.58l-10.18 -10.18c-1.21,-1.45 -2.67,-2.91 -4.12,-4.36l-10.67 15.51zm125.57 86.79c7.27,-17.21 9.94,-30.54 9.94,-50.42 0,-36.37 -12.36,-75.15 -33.45,-105.21l-5.34 3.15c8.97,20.6 11.16,31.03 11.16,53.82 0,25.45 -2.43,37.81 -13.34,69.57l31.03 29.09zm132.12 -18.18l10.91 -14.79c-7.03,-15.27 -13.09,-25.94 -21.58,-38.54 6.31,-25.22 12.12,-40.25 22.79,-56.73l-28.36 -31.03c-10.43,21.09 -15.27,40.73 -14.79,60.61 -12.12,-13.58 -24.73,-24.25 -42.91,-36.37 -4.85,-9.94 -7.51,-14.79 -12.6,-22.06l-6.79 5.82c2.42,3.39 2.67,3.88 4.36,7.03 -5.09,-3.15 -6.06,-3.64 -12.12,-7.03l-3.39 7.27c9.21,7.03 13.82,10.91 21.09,17.94 1.45,4.85 1.69,6.79 1.69,11.64 0,25.45 -8.24,47.75 -30.78,84.36l25.94 32.24c14.54,-28.6 21.33,-55.51 21.33,-84.85 0,-8.96 -0.73,-15.99 -2.18,-26.18 24.48,30.06 40.24,62.79 53.09,109.82l8.24 -11.15 6.06 9.21 6.06 -4.85 -6.06 -12.36zm115.39 -103.51c3.64,-2.19 5.09,-3.16 10.18,-7.76l-22.54 -26.43c-12.12,11.88 -19.15,15.76 -31.03,16.73 -3.15,-6.79 -5.58,-11.15 -9.7,-16.48l-7.76 5.57c2.91,5.34 3.88,7.03 5.58,10.18 -6.3,-1.21 -9.7,-2.18 -16.73,-5.09l-3.88 3.15c15.03,15.28 20.12,19.4 27.64,22.55 1.7,8.73 2.18,15.03 2.18,23.76 0,4.12 0,6.3 -0.24,10.91l-18.18 -15.03 -7.52 10.18 23.27 19.88c-2.9,10.9 -8.72,25.45 -14.54,35.15 -7.03,-6.55 -12.12,-8.97 -18.67,-8.97 -10.91,0 -19.63,9.69 -19.63,22.06 0,12.85 9.94,22.06 24.24,22.06 15.51,0 25.7,-9.7 34.42,-32.49 3.64,-9.21 5.82,-16.48 7.52,-26.18l20.85 17.7c5.09,16.48 13.33,33.21 22.78,46.06l24.25 -33.7c-10.91,-9.45 -15.76,-15.03 -21.09,-23.76 -8.25,-12.84 -12.85,-27.63 -12.85,-40.48 0,-8.48 1.45,-15.03 5.81,-27.88l-4.36 -1.69zm-33.45 47.99c0.48,-4.6 0.48,-7.51 0.48,-11.63 0,-10.67 -0.97,-20.85 -3.15,-30.55 3.88,0.49 6.55,0.73 9.94,0.73 7.52,0 12.61,-0.97 19.64,-3.39 -9.7,15.03 -13.34,27.63 -13.34,45.81 0,3.64 0.25,6.31 0.73,10.91l-14.3 -11.88z"/>
   </g>
   <path class="fil4" d="M402.28 654.62c8.85,9 11.85,11.43 16.28,13.28 0.01,0.04 0.02,0.07 0.02,0.11 2.28,0.87 4.67,1.52 7.12,1.89 0.09,0.01 0.17,0.02 0.25,0.03 0.93,0.12 1.74,0.2 2.52,0.27 1.03,0.07 2.06,0.09 3.09,0.07 7.84,-0.19 15.43,-3.12 21.42,-8.37l-13.28 -15.57c-1.94,2.09 -3.94,3.86 -6.01,5.29 -3.36,2.5 -6.33,3.74 -10.03,4.31 -0.74,0.14 -1.49,0.25 -2.23,0.32 -5.28,0.51 -10.9,-0.65 -16.86,-3.49l-2.29 1.86z"/>
  </g>
 </g>
</svg>
