<?xml version="1.0" encoding="UTF-8"?>
<!DOCTYPE svg PUBLIC "-//W3C//DTD SVG 1.0//EN" "http://www.w3.org/TR/2001/REC-SVG-20010904/DTD/svg10.dtd">
<!-- Creator: CorelDRAW -->
<svg xmlns="http://www.w3.org/2000/svg" xml:space="preserve" width="20mm" height="15mm" version="1.0" style="shape-rendering:geometricPrecision; text-rendering:geometricPrecision; image-rendering:optimizeQuality; fill-rule:evenodd; clip-rule:evenodd"
viewBox="0 0 2000 1500"
 xmlns:xlink="http://www.w3.org/1999/xlink"
 xmlns:xodm="http://www.corel.com/coreldraw/odm/2003">
 <defs>
  <style type="text/css">
   <![CDATA[
    .fil0 {fill:#331274}
    .fil1 {fill:#FEFEFE;fill-rule:nonzero}
    .fil2 {fill:#46811F;fill-rule:nonzero}
    .fil4 {fill:#56A129;fill-rule:nonzero}
    .fil8 {fill:#663399;fill-rule:nonzero}
    .fil5 {fill:#ADA0C7;fill-rule:nonzero}
    .fil12 {fill:#C1B7D5;fill-rule:nonzero}
    .fil6 {fill:#D6CFE3;fill-rule:nonzero}
    .fil3 {fill:#EAE6F0;fill-rule:nonzero}
    .fil10 {fill:#FEFEFE;fill-rule:nonzero;fill-opacity:0.019608}
    .fil9 {fill:#FEFEFE;fill-rule:nonzero;fill-opacity:0.180392}
    .fil7 {fill:#1E005A;fill-rule:nonzero;fill-opacity:0.200000}
    .fil11 {fill:#FEFEFE;fill-rule:nonzero;fill-opacity:0.501961}
   ]]>
  </style>
 </defs>
 <g id="Camada_x0020_1">
  <metadata id="CorelCorpID_0Corel-Layer"/>
  <rect class="fil0" x="-103.19" y="-68.22" width="2191.32" height="1643.49"/>
  <g id="_2388835319472">
   <path class="fil1" d="M370.24 468.18c-6.01,0.88 -16.89,3.63 -24.27,6.13 -52.78,17.64 -90.8,61.54 -101.81,117.57 -2.25,11.38 -2.25,43.52 0,55.03 10.89,55.16 50.16,100.31 102.06,117.44 22.64,7.38 22.02,7.38 109.19,7.88l80.3 0.5 0 -90.17 -72.42 0c-68.66,0 -72.79,-0.13 -80.42,-2.5 -32.14,-9.89 -51.28,-44.41 -42.9,-76.92 6.38,-24.14 28.52,-43.78 53.15,-46.91 5.13,-0.62 39.4,-1.25 76.05,-1.25l66.54 0 0 -88.8 -77.17 0.13c-58.54,0.12 -79.92,0.5 -88.3,1.87zm828.35 -1.25c-1.75,0.25 -7,1.13 -11.88,1.88 -12.26,2 -28.39,7.5 -41.4,14.01 -42.53,21.51 -71.04,59.15 -81.3,107.18 -3,14.39 -3.12,42.9 -0.12,57.91 12.38,62.16 59.28,109.06 121.82,121.82 16.26,3.38 99.55,3.38 115.81,0 62.54,-12.76 109.69,-59.91 121.7,-121.82 2.63,-13.63 3,-41.15 0.62,-54.16 -11,-61.78 -56.15,-109.43 -117.56,-124.07 -9.63,-2.37 -15.39,-2.62 -57.66,-2.87 -25.77,-0.25 -48.28,-0.13 -50.03,0.12zm86.3 91.55c10.88,3.88 16.51,7.01 23.51,13.39 8.38,7.63 13.26,14.76 17.26,25.14 13.14,35.02 -7.38,74.04 -43.9,83.8 -9.5,2.62 -67.66,2.37 -77.54,-0.13 -28.64,-7.5 -48.91,-36.52 -46.4,-66.29 2,-25.39 18.01,-46.28 42.02,-55.16 9.51,-3.37 18.26,-4.12 48.78,-3.75 25.64,0.38 30.27,0.75 36.27,3l0 0zm298.3 -91.42c-68.79,8.63 -122.07,58.91 -133.83,126.32 -2.38,13.88 -2.38,38.4 0,52.41 9.63,54.9 49.28,101.05 101.93,118.56 22.64,7.51 21.26,7.38 109.19,7.88l80.92 0.5 0 -90.17 -71.66 0c-78.92,0 -79.8,-0.13 -93.31,-7.76 -22.89,-13.01 -35.89,-40.02 -31.64,-65.16 4.25,-24.26 21.26,-43.4 46.53,-52.03 4.75,-1.63 17.01,-2 77.92,-2.38l72.16 -0.37 0 -88.68 -77.17 0.13c-42.52,0.12 -78.92,0.5 -81.04,0.75zm-640.25 83.17l-27.26 82.92 22.88 69.67 23.02 69.79 55.4 0c43.91,0 55.41,-0.38 55.04,-1.63 -0.38,-0.75 -23.02,-69.41 -50.41,-152.59 -27.51,-83.04 -50.28,-150.96 -50.65,-150.96 -0.38,0 -13.01,37.27 -28.02,82.8zm-431 321.19l0 10 33.77 0 0 -20.01 -33.77 0 0 10.01zm65.92 7.25l-17.14 17.13 0 28.27 4.63 -5.13c2.5,-2.75 5.38,-5 6.25,-5 2,0 32.9,15.38 32.77,16.26 0,0.38 -9.63,5.25 -21.51,11.01l-21.51 10.38 -0.38 11.13c-0.12,6.25 0,11.26 0.38,11.26 0.37,0 3,-1.13 5.63,-2.51l5 -2.5 0 72.54 113.81 0 0 -72.41 5.63 2.37 5.63 2.38 0 -22.39 -22.14 -10.75 -22.26 -10.76 14.38 -6.88c7.88,-3.75 15.64,-7.38 17.26,-8 2.63,-1 2.75,-1.5 2.75,-19.76l0 -18.77 -3.25 -2.5c-3.25,-2.5 -4.88,-2.62 -36.52,-2.62l-33.27 0 4.88 -5.01 4.88 -5 -28.64 0 -17.26 17.26 0 0zm86.42 18.01l-0.37 5.25 -17.01 8.01 -16.89 8 -21.14 -10.13 -21.01 -10.13 2.88 -3.13 2.87 -3.12 71.05 0 -0.38 5.25 0 0zm0.88 60.54l6.25 3 -40.65 -0.13 -40.65 -0.12 19.76 -9.76 19.89 -9.75 14.51 6.87c8.13,3.88 17.51,8.26 20.89,9.88l0 0.01zm-0.63 43.02l0 20.01 -68.79 0 0 -40.02 68.79 0 0 20.01zm123.82 -49.4l0 89.42 22.52 0 0 -158.84 18.76 0 0 47.53 -8.76 0 0 22.51 8.76 0 0 45.03 -8.76 0 0 22.51 11.26 0c11.88,0 17.76,-1.75 19.26,-5.63 0.37,-1.12 0.75,-34.39 0.75,-73.91l0 -71.92 -3.13 -3 -3 -3.13 -57.66 0 0 89.43zm83.43 -88.68c-0.5,0.5 -0.88,40.77 -0.88,89.55l0 88.55 103.81 0 0 -86.17c0,-82.92 -0.13,-86.3 -2.38,-89.05l-2.37 -3 -48.66 -0.38c-26.76,-0.12 -49.02,0 -49.52,0.5zm80.42 49.28l0 30.02 -29.02 -0.25 -29.14 -0.38 -0.38 -29.77 -0.25 -29.64 58.79 0 0 30.02zm0 78.79l0 30.02 -58.79 0 0 -29.14c0,-16.13 0.38,-29.64 0.88,-30.02 0.37,-0.5 13.63,-0.87 29.39,-0.87l28.52 0 0 30.01zm122.19 -119.06l-9.63 9.63 0 19.38 71.29 0 0 -18.76 -43.02 0 9 -9.13c4.88,-5 9.01,-9.5 9.01,-10 0,-0.5 -6,-0.88 -13.51,-0.88l-13.38 0 -9.76 9.76 0 0zm72.92 79.67l0 89.42 103.81 0 0 -86.05c-0.13,-65.53 -0.5,-86.42 -1.63,-87.92 -3.62,-4.63 -6,-4.88 -54.53,-4.88l-47.65 0 0 89.43zm82.3 -52.91l-0.38 16.64 -29.01 0.37 -29.15 0.25 0 -33.77 58.91 0 -0.37 16.51zm0 52.53l-0.38 16.64 -29.01 0.37 -29.15 0.25 0 -33.77 58.91 0 -0.37 16.51zm0 53.16l0.37 16.63 -58.91 0 0 -33.77 29.15 0.25 29.01 0.38 0.38 16.51zm171.6 -62.79l0 79.42 -60.04 0 0 20.01 186.36 0 0 -20.01 -60.04 0 0 -158.97 -10.88 0.38 -11 0.38 -0.38 79.04 -0.25 79.17 -22.51 0 0 -158.84 -21.26 0 0 79.42z"/>
   <path class="fil2" d="M659.78 467.68c26.26,80.8 54.4,164.47 55.03,163.85 0.38,-0.5 12.76,-37.15 27.27,-81.55 14.63,-44.4 26.89,-81.42 27.14,-82.3 0.5,-1.12 -10.88,-1.5 -54.66,-1.5 -43.65,0 -55.16,0.38 -54.78,1.5z"/>
   <path class="fil3" d="M861.14 467.93c0.25,0.88 12.51,38.65 27.27,83.8l26.89 82.05 18.39 -55.41c10,-30.39 22.51,-68.04 27.64,-83.8l9.38 -28.39 -55.03 0c-46.03,0 -54.91,0.25 -54.54,1.75l0 0z"/>
   <path class="fil4" d="M656.03 475.19c-3.76,11.5 -87.05,265.4 -92.81,282.78l-4.88 14.64 55.16 -0.25 55.16 -0.38 22.39 -66.91c12.25,-36.77 22.51,-68.04 22.76,-69.54 0.5,-2.25 -52.91,-165.85 -54.66,-167.6 -0.37,-0.37 -1.75,2.88 -3.12,7.26l0 0z"/>
   <path class="fil5" d="M742.33 551.61l-27.77 84.17 11.38 33.64c6.26,18.64 11.63,34.9 11.88,36.27 0.25,1.38 5.13,16.51 10.88,33.65 10.26,30.52 10.51,31.14 12.01,26.89 0.75,-2.38 11.13,-33.27 22.76,-68.67 11.76,-35.39 23.64,-71.16 26.39,-79.54l5.01 -15.14 -5.63 -17.38c-3.13,-9.51 -12.13,-36.52 -19.89,-59.91 -7.75,-23.39 -14.13,-43.15 -14.26,-44.03 -0.37,-2 -4.37,-14.13 -4.75,-14.13 -0.12,0 -12.76,37.9 -28.01,84.18l0 0z"/>
   <path class="fil6" d="M837.88 535.47l-22.39 67.67 27.39 83.42c15.14,46.03 27.64,83.55 28.02,83.55 0.38,0 10.63,-30.52 22.76,-67.67l22.14 -67.54 -27.01 -82.17c-14.76,-45.15 -27.27,-82.8 -27.65,-83.55 -0.5,-0.75 -10.88,29.14 -23.26,66.29l0 0z"/>
   <path class="fil7" d="M536.33 727.58c0,24.39 0.13,34.4 0.25,22.27 0.25,-12.26 0.25,-32.27 0,-44.41 -0.12,-12.25 -0.25,-2.25 -0.25,22.14zm251.4 223.88c0,49.16 0.12,69.29 0.25,44.65 0.25,-24.51 0.25,-64.78 0,-89.42 -0.13,-24.52 -0.25,-4.38 -0.25,44.77zm187.61 4.38c0,46.78 0.12,65.79 0.25,42.15 0.25,-23.64 0.25,-61.91 0,-85.05 -0.13,-23.14 -0.25,-3.88 -0.25,42.9zm129.2 -74.79c5.62,0.25 14.88,0.25 20.63,0 5.63,-0.13 1,-0.38 -10.38,-0.38 -11.38,0 -16.01,0.25 -10.25,0.38zm-584.84 33.77c4.63,0.25 12.5,0.25 17.51,0 5,-0.13 1.25,-0.38 -8.38,-0.38 -9.63,0 -13.76,0.13 -9.13,0.38zm562.32 0c9.76,0.25 25.77,0.25 35.65,0 9.75,-0.13 1.75,-0.38 -17.89,-0.38 -19.63,0 -27.64,0.25 -17.76,0.38zm103.19 0c8,0.25 21.26,0.25 29.39,0 8,-0.13 1.37,-0.38 -14.76,-0.38 -16.13,0 -22.76,0.25 -14.63,0.38zm-78.55 36.27l0 16.01 14.13 0.12 14.01 0 -13.76 -0.37 -13.63 -0.5 -0.5 -15.51 -0.37 -15.64 0.12 15.89zm-197.86 -10.01c8,0.25 21.26,0.25 29.39,0 8,-0.12 1.37,-0.37 -14.76,-0.37 -16.13,0 -22.76,0.25 -14.63,0.37zm-211.25 22.26c0,6.13 0.13,8.88 0.38,6.01 0.25,-2.88 0.25,-8.01 0,-11.26 -0.25,-3.25 -0.38,-1 -0.38,5.25zm371.97 4.01c2.87,0.25 7.37,0.25 10,0 2.5,-0.25 0.13,-0.5 -5.38,-0.5 -5.5,0 -7.63,0.25 -4.62,0.5zm115.69 0c8,0.25 21.26,0.25 29.39,0 8,-0.13 1.37,-0.38 -14.76,-0.38 -16.13,0 -22.76,0.25 -14.63,0.38zm-498.92 37.89c0,19.64 0.25,27.64 0.38,17.76 0.25,-9.75 0.25,-25.76 0,-35.64 -0.13,-9.76 -0.38,-1.75 -0.38,17.88zm420.25 -1.25c0,9.26 0.12,13.14 0.37,8.38 0.25,-4.63 0.25,-12.13 0,-16.88 -0.25,-4.63 -0.37,-0.75 -0.37,8.5z"/>
   <path class="fil8" d="M812.24 610.14c-0.75,2.25 -1.37,4.63 -1.25,5.38 0,0.75 0.88,-0.88 1.88,-3.5 1,-2.76 1.5,-5.13 1.25,-5.38 -0.25,-0.25 -1.13,1.25 -1.88,3.5zm-5.63 16.88c-1.12,3.26 -2,6.51 -1.87,7.26 0,0.75 1.12,-1.63 2.5,-5.38 1.25,-3.75 2.12,-7 1.87,-7.25 -0.25,-0.25 -1.37,2.12 -2.5,5.37zm-30.64 92.68c-0.12,0.75 -0.5,2.5 -0.88,3.76 -0.62,2.12 -0.62,2.12 0.76,0 0.75,-1.26 1.12,-2.88 0.75,-3.76 -0.38,-1.12 -0.63,-1.12 -0.63,0l0 0zm-5.63 17.39c-0.5,1.75 -0.62,3.5 -0.37,3.88 0.37,0.25 1,-1.01 1.37,-2.88 0.5,-1.75 0.63,-3.5 0.38,-3.88 -0.38,-0.25 -1,1 -1.38,2.88zm-3.75 11.25c-1.13,3.26 -2,6.51 -1.88,7.26 0,0.75 1.13,-1.63 2.51,-5.38 1.25,-3.75 2.12,-7 1.87,-7.25 -0.25,-0.25 -1.37,2.12 -2.5,5.37zm-5.63 16.89c-0.75,2.25 -1.37,4.63 -1.25,5.38 0,0.75 0.88,-0.88 1.88,-3.5 1,-2.76 1.5,-5.13 1.25,-5.38 -0.25,-0.25 -1.13,1.25 -1.88,3.5z"/>
   <path class="fil1" d="M1347.05 901.06c-0.38,0.87 3.25,22.64 12.26,73.79l2.12 11.63 10.51 0c8.25,0 10.51,-0.37 10.51,-1.75 0,-2 -12.14,-77.29 -13.14,-81.8 -0.62,-2.62 -1.25,-2.75 -11.25,-2.75 -5.76,0 -10.76,0.38 -11.01,0.88l0 0zm152.96 0c0,1.12 -13.5,79.92 -14.26,83.3 -0.5,2 0.5,2.12 10.89,1.87l11.38 -0.37 7.13 -41.28c4,-22.76 7.25,-42.02 7.38,-42.9 0,-1.12 -3.01,-1.5 -11.26,-1.5 -6.13,0 -11.26,0.38 -11.26,0.88l0 0zm-988.07 23.51l0 9.38 33.77 0 0 -18.76 -33.77 0 0 9.38 0 0zm552.82 0l0 9.38 18.76 0 0 33.77 -18.76 0 0 18.76 18.76 0 0 53.78 52.66 0 -0.38 -9.75 -0.37 -9.63 -14.76 -0.38 -14.76 -0.37 0.38 -16.51 0.37 -16.51 14.76 -0.38 14.63 -0.37 0 -18.64 -30.14 0 0.38 -16.63 0.37 -16.51 14.76 -0.38 14.63 -0.37 0 -18.64 -71.29 0 0 9.38 0 0zm-544.06 37.15c0,1.87 -7.13,65.29 -8.13,73.17l-0.75 5.37 23.76 0 0.75 -4.12c1,-5.76 8.13,-70.29 8.13,-73.42 0,-2.38 -0.75,-2.5 -11.88,-2.5 -8.63,0 -11.88,0.37 -11.88,1.5l0 0z"/>
   <path class="fil9" d="M620.01 865.41l-2.38 2.88 2.88 -2.38c1.5,-1.37 2.75,-2.62 2.75,-2.87 0,-1 -1,-0.25 -3.25,2.37z"/>
   <path class="fil10" d="M576.98 878.55l-16.88 17.26 17.26 -16.89c9.38,-9.25 17.13,-17.01 17.13,-17.13 0,-1.01 -1.88,0.87 -17.51,16.76zm525.93 -6.88l-8.76 9.13 9.13 -8.76c4.88,-4.75 9.01,-8.88 9.01,-9 0,-1 -1.38,0.25 -9.38,8.63z"/>
   <path class="fil9" d="M1074.14 870.42l-8.75 9.13 9.13 -8.76c4.88,-4.75 9,-8.88 9,-9 0,-1.01 -1.37,0.25 -9.38,8.63zm-458.51 -0.63c-1.63,2 -1.5,2.13 0.5,0.5 2,-1.63 2.62,-2.63 1.62,-2.63 -0.25,0 -1.25,1 -2.12,2.13zm-25.02 25.01l-3 3.51 3.5 -3.01c3.13,-2.87 4.01,-3.87 3.01,-3.87 -0.25,0 -1.76,1.5 -3.51,3.37z"/>
   <path class="fil11" d="M568.1 916.07c-1.63,2 -1.5,2.12 0.5,0.5 1.13,-0.88 2.13,-1.88 2.13,-2.13 0,-1 -1,-0.37 -2.63,1.63zm-5 5c-1.63,2 -1.5,2.13 0.5,0.5 2,-1.63 2.62,-2.63 1.62,-2.63 -0.25,0 -1.25,1 -2.12,2.13z"/>
   <path class="fil12" d="M787.48 688.43l-27.52 83.55 55.03 0.38c30.27,0.12 55.29,0.12 55.54,-0.13 0.5,-0.62 -53.41,-165.09 -54.54,-166.34 -0.5,-0.5 -13.25,36.64 -28.51,82.54l0 0z"/>
  </g>
 </g>
</svg>
