<?xml version="1.0" encoding="UTF-8"?>
<!DOCTYPE svg PUBLIC "-//W3C//DTD SVG 1.0//EN" "http://www.w3.org/TR/2001/REC-SVG-20010904/DTD/svg10.dtd">
<!-- Creator: CorelDRAW -->
<svg xmlns="http://www.w3.org/2000/svg" xml:space="preserve" width="20mm" height="15mm" version="1.0" style="shape-rendering:geometricPrecision; text-rendering:geometricPrecision; image-rendering:optimizeQuality; fill-rule:evenodd; clip-rule:evenodd"
viewBox="0 0 2000 1500"
 xmlns:xlink="http://www.w3.org/1999/xlink"
 xmlns:xodm="http://www.corel.com/coreldraw/odm/2003">
 <defs>
  <style type="text/css">
   <![CDATA[
    .fil0 {fill:#E6E7E8}
    .fil1 {fill:black;fill-rule:nonzero}
   ]]>
  </style>
 </defs>
 <g id="Camada_x0020_1">
  <metadata id="CorelCorpID_0Corel-Layer"/>
  <rect class="fil0" x="-65.93" y="-40.27" width="2116.8" height="1587.6"/>
  <path class="fil1" d="M971.82 268.5c-13.64,3.9 -20.38,7.79 -52.61,29.98 -6.14,4.34 -17.23,11.99 -24.73,16.93 -7.34,5.1 -20.98,14.54 -30.28,20.84 -9.29,6.44 -29.22,20.08 -44.21,30.28 -15.14,10.34 -30.88,21.13 -35.22,23.98 -7.2,5.09 -20.09,13.79 -100.88,68.34 -16.93,11.39 -43.61,29.38 -59.5,40.02 -15.89,10.49 -29.53,20.54 -30.43,22.04 -0.75,1.64 -1.5,4.94 -1.5,7.49 0,12.44 3.45,13.64 40.02,13.64 24.58,0 30.28,0.45 33.13,2.4 7.34,5.09 7.34,2.7 6.29,120.5 -0.45,60.56 -0.3,115.12 0.45,121.11 1.35,12.74 6,23.68 14.09,33.58 14.69,17.98 39.27,29.97 92.63,45.41 13.19,3.9 28.03,8.39 32.98,10.04 4.94,1.65 19.48,6 32.22,9.59 46.01,13.19 76.89,10.35 104.32,-9.89 15.14,-11.24 22.03,-26.53 22.18,-49.46 0,-14.54 -0.3,-16.49 -4.64,-25.78 -7.95,-16.79 -21.14,-28.63 -40.62,-36.27 -5.1,-1.95 -19.04,-5.7 -31.33,-8.39 -29.98,-6.45 -39.87,-9.6 -53.21,-16.94 -13.19,-7.35 -21.43,-16.34 -28.18,-30.13 -4.04,-8.54 -4.79,-12.29 -6.14,-30.42 -1.8,-23.54 -3.9,-30.13 -12.44,-37.63 -5.7,-5.09 -14.39,-9.29 -18.89,-9.29 -1.5,0 -3.44,-1.05 -4.64,-2.4 -4.05,-4.94 6.44,-17.53 16.33,-19.48 6.75,-1.35 19.19,5.09 31.33,16.34 20.53,18.88 32.67,24.58 65.8,30.87 26.38,4.95 43.62,15.59 57.26,35.52 11.99,17.54 15.28,28.03 9.74,30.13 -1.35,0.6 -7.8,0.15 -14.09,-0.75 -13.79,-1.95 -29.23,-9.29 -37.92,-17.68 -6.6,-6.6 -16.04,-20.54 -18.59,-27.43 -1.05,-2.55 -2.55,-6.75 -3.44,-9.15 -3.45,-9.29 -14.99,-11.09 -22.94,-3.74 -13.94,13.04 9.9,55.75 41.97,74.94 12.44,7.49 29.98,12.74 46.31,13.79 12,0.75 14.54,0.45 20.99,-2.4 13.04,-5.7 19.03,-13.79 20.83,-28.18 0.9,-6.59 0.3,-9.59 -3.59,-19.78 -10.05,-26.08 -30.43,-50.06 -51.42,-60.71 -6.44,-3.29 -11.39,-6.59 -11.09,-7.49 0.3,-0.9 4.5,-3.75 9.45,-6.15 21.43,-10.94 36.57,-23.38 48.41,-39.57 16.79,-23.23 26.98,-51.41 27.13,-74.79 0,-11.09 -1.5,-14.39 -7.65,-17.53 -7.04,-3.75 -13.34,-0.9 -21.13,9.44 -6.89,8.99 -14.69,14.39 -29.08,19.78 -6.89,2.7 -13.64,3.6 -31.32,4.5 -16.79,0.9 -24.73,1.95 -31.33,4.35 -12.44,4.34 -15.29,4.04 -21.88,-2.55 -6.15,-6.15 -9.74,-15.74 -8.1,-22.03 1.35,-5.55 20.84,-20.09 62.81,-46.92 18.58,-11.99 26.82,-17.23 32.67,-21.13 3.15,-2.1 6.89,-4.65 8.24,-5.4 7.65,-4.64 31.78,-23.08 35.98,-27.58 5.84,-6.14 10.79,-15.13 10.79,-19.33 0,-4.2 3.75,-6.9 7.04,-5.1 7.2,4.05 35.82,39.42 44.82,55.76 1.65,2.7 4.79,8.39 7.04,12.59 11.39,20.68 25.48,61 29.38,84.83 1.65,9.45 4.65,38.08 4.65,43.47 0,4.8 -4.2,7.5 -11.7,7.5 -26.23,0.15 -51.26,17.98 -67.44,47.96 -11.7,21.43 -15.89,36.12 -16.04,55.46 0,15.28 0.15,16.03 4.94,23.53 9,13.94 25.63,21.13 40.32,17.09 22.49,-5.85 51.41,-38.23 60.41,-67.45 2.99,-9.3 2.99,-9.75 0.45,-14.99 -1.8,-3.6 -4.35,-6 -8.25,-7.35 -9.14,-3.44 -12.59,-0.74 -22.18,18.29 -4.5,8.84 -11.24,19.79 -14.99,24.13 -12.59,14.69 -26.23,21.29 -29.98,14.39 -6.44,-12.29 7.8,-51.26 25.19,-68.8 12.29,-12.14 23.08,-15.28 39.12,-11.39 16.48,4.2 26.67,10.19 46.46,28.33 7.04,6.3 15.59,13.19 19.03,15.14 6.75,3.9 27.73,11.09 32.83,11.09 5.1,0 18.44,7.04 20.23,10.64 2.55,4.65 1.05,20.09 -2.54,28.63 -7.5,16.79 -22.49,23.38 -68.65,30.28 -13.94,2.09 -29.23,4.19 -33.72,4.79 -22.04,2.7 -49.47,14.24 -63.86,26.83 -8.09,7.05 -16.63,18.89 -19.78,27.73 -5.25,14.09 -3.45,37.77 4.05,52.01 6.89,13.34 25.03,26.68 42.86,31.33 20.84,5.54 55.46,2.24 80.94,-7.95 3.3,-1.2 26.98,-9.59 52.46,-18.43 25.63,-8.85 51.56,-18.59 57.71,-21.74 34.92,-17.53 49.16,-32.97 54.7,-59.2 2.1,-9.89 2.25,-16.79 0.9,-55.46 -0.9,-24.28 -2.39,-75.84 -3.29,-114.36l-1.8 -70.3 4.04 -3.89 3.9 -4.05 30.73 -0.75c29.68,-0.75 30.57,-0.9 34.32,-4.35 4.5,-4.19 6.15,-11.24 4.2,-16.78 -1.65,-4.35 -5.85,-7.2 -31.78,-22.34 -10.34,-5.99 -38.22,-22.33 -61.9,-36.57 -23.83,-14.09 -46.01,-27.28 -49.46,-29.23 -3.45,-1.94 -8.4,-5.09 -10.94,-7.04l-4.8 -3.45 -0.9 -34.17c-0.6,-18.74 -1.35,-43.92 -1.65,-55.91l-0.6 -21.73 -4.64 -4.2 -4.5 -4.04 -40.17 -0.01c-22.03,0 -42.42,0.75 -45.41,1.5 -9.6,2.7 -11.1,5.7 -11.4,23.84 -0.15,8.69 -0.29,16.33 -0.44,16.93 -0.16,3.3 -7.05,-0.45 -31.93,-17.23 -14.99,-10.2 -33.87,-22.94 -41.82,-28.33 -21.43,-14.39 -31.02,-17.84 -52.16,-18.59 -12.44,-0.45 -19.48,0 -25.33,1.65l0 0zm35.97 28.48c11.7,3 18.44,7.19 62.81,38.07 19.63,13.64 54.85,37.02 58.75,38.97 5.85,3 13.64,1.05 18.29,-4.5 3.74,-4.49 3.89,-5.24 3.89,-26.08 0,-17.53 0.45,-21.88 2.4,-23.83 1.95,-1.95 6.3,-2.4 23.68,-2.4 15.44,0 21.89,0.6 23.09,1.8 0.74,1.2 1.79,22.33 2.54,50.66 1.2,54.71 1.35,56.06 12.59,62.95 3,1.8 7.8,4.65 10.65,6.45 8.09,5.1 28.47,16.79 44.21,25.78 4.2,2.25 12.29,7.04 17.99,10.34 5.84,3.45 16.33,9.59 23.53,13.64 7.34,4.2 12.89,8.09 12.74,8.99 -0.3,0.75 -6.9,1.8 -14.69,2.25 -15.74,0.9 -21.28,3.15 -23.98,10.19 -1.05,2.7 -1.35,16.19 -0.75,40.02 1.05,43.92 3.75,166.67 4.2,198.6 0.45,22.78 0.3,23.38 -3.75,31.48 -7.94,15.58 -26.08,26.82 -66.7,41.36 -41.22,14.69 -89.18,30.73 -99.22,32.98 -11.99,2.85 -35.08,1.95 -45.12,-1.5 -13.04,-4.65 -22.18,-17.54 -22.33,-31.03 -0.15,-25.63 25.63,-41.52 77.19,-47.81 8.24,-0.9 19.78,-2.7 25.78,-3.9 5.99,-1.2 12.14,-2.1 13.79,-2.1 1.65,0 5.99,-0.89 9.44,-2.09 3.6,-1.05 10.49,-3.15 15.44,-4.65 32.23,-9.59 50.21,-33.72 50.66,-68.2 0.3,-15.59 -1.2,-21.28 -7.79,-29.53 -7.2,-9.14 -16.64,-14.23 -37.92,-20.53 -24.29,-7.19 -24.59,-7.34 -37.48,-19.78 -6.44,-6.15 -16.03,-13.94 -21.13,-17.09 -16.79,-10.64 -16.04,-9.74 -16.04,-19.19 0,-14.24 -2.84,-41.96 -6.29,-61 -5.7,-32.22 -21.73,-75.09 -38.22,-101.62 -8.85,-14.54 -25.78,-38.22 -31.78,-44.52 -1.35,-1.34 -5.39,-5.84 -9.14,-9.89 -3.6,-4.05 -11.09,-10.64 -16.49,-14.54 -19.78,-14.69 -31.17,-17.98 -38.22,-10.94 -4.2,4.2 -4.8,6.3 -5.99,22.03 -1.2,13.79 -3.45,17.99 -15.29,27.88 -8.4,6.9 -53.36,37.92 -55.01,37.92 -0.45,0 -3.75,1.95 -7.19,4.35l-25.18 16.79c-22.34,14.69 -41.07,29.52 -45.72,35.97 -12.14,16.34 -6.59,45.56 12.14,63.55 14.54,13.94 23.68,15.44 49.16,7.79 10.35,-3.14 16.34,-4.04 27.73,-4.04 13.34,0 20.24,-1.2 41.07,-7.05 1.65,-0.6 2.55,0 2.55,1.5 0,9.44 -23.83,35.52 -41.97,45.87 -21.43,12.29 -58.6,21.43 -67.6,16.63 -1.95,-1.05 -9.59,-6.74 -17.08,-12.74 -22.79,-18.13 -38.82,-24.13 -55.01,-20.38 -15.59,3.45 -31.63,16.94 -37.77,31.78 -4.5,10.64 -7.2,24.43 -6.15,31.02 1.5,10.04 6,13.79 16.79,13.79 10.79,0 19.48,2.4 21.28,5.7 0.6,1.35 1.65,11.09 2.1,21.73 0.75,14.69 1.8,21.73 4.8,30.43 5.69,16.93 8.84,22.18 19.93,33.27 15.74,15.74 32.68,24.28 58.76,29.53 28.03,5.84 46.76,11.09 56.2,16.04 20.69,10.79 29.23,27.57 22.34,44.06 -4.35,10.64 -11.39,16.04 -28.33,21.74 -7.79,2.54 -31.63,2.24 -43.47,-0.6 -21.43,-5.1 -108.66,-31.48 -122.15,-36.88 -19.79,-8.09 -31.33,-16.18 -38.97,-27.57l-5.25 -7.8 0.6 -129.65c0.45,-114.21 0.3,-130.25 -1.8,-135.19 -3.45,-8.25 -8.54,-10.2 -26.53,-10.2 -11.54,0 -15.14,-0.45 -14.69,-1.95 0.45,-0.89 12.14,-9.44 26.08,-18.88 13.94,-9.29 40.92,-27.43 59.81,-40.32 19.03,-12.89 38.52,-25.93 43.46,-29.23 4.95,-3.29 12.59,-8.39 16.94,-11.39 4.35,-3 9.44,-6.44 11.39,-7.64 1.95,-1.2 11.54,-7.8 21.29,-14.54 9.89,-6.75 33.42,-22.78 52.31,-35.52 19.03,-12.74 43.61,-29.38 54.7,-37.02 21.29,-14.39 23.24,-15.29 35.23,-18.59 10.04,-2.7 17.23,-2.7 27.88,0l-0.01 0zm40.62 647.2c-2.84,0.9 -6.74,3.75 -8.84,6.59 -3.45,4.5 -20.08,49.91 -27.43,74.65 -1.5,4.94 -4.8,14.84 -7.49,22.18 -5.25,14.24 -5.1,18.73 0.3,24.58 5.54,5.85 11.69,4.65 41.51,-8.69 14.99,-6.6 28.33,-11.84 29.83,-11.54 1.35,0.3 3.15,2.84 4.05,6.14 0.9,3.15 3.45,7.94 5.69,10.79 5.55,6.9 12.74,7.35 19.19,0.9 4.65,-4.79 5.4,-9.29 2.7,-16.19 -0.9,-2.24 -5.25,-14.38 -9.59,-26.67 -28.93,-82.44 -26.98,-77.79 -35.68,-81.84 -7.04,-3.15 -7.34,-3.15 -14.24,-0.9l0 0zm13.79 56.21c3.3,9.89 5.4,19.03 4.95,20.38 -1.2,3.15 -26.08,14.84 -28.93,13.79 -1.65,-0.6 -1.65,-1.65 -0.45,-4.95 0.9,-2.25 3.3,-9.89 5.25,-16.93 9.44,-32.53 9.74,-33.28 11.54,-31.63 1.05,0.75 4.49,9.44 7.64,19.34l0 0zm-129.95 -52.16c-15.59,4.94 -26.08,16.33 -29.68,32.07 -1.34,6.3 -1.19,9.14 0.75,16.19 4.05,13.64 11.1,18.88 36.28,26.83 14.38,4.64 18.58,7.79 18.58,14.24 0,5.09 -5.54,10.79 -11.69,12.14 -6.89,1.35 -8.99,1.05 -21.73,-2.85 -8.55,-2.55 -10.95,-2.7 -14.54,-1.2 -15.14,6.3 -10.04,25.48 7.94,30.43 24.28,6.89 43.92,3.44 58.46,-10.05 8.09,-7.64 11.54,-16.78 11.54,-30.27 0,-21.59 -7.35,-29.83 -34.63,-39.42 -16.78,-6 -20.83,-8.7 -20.83,-13.79 0,-3.45 7.04,-8.84 11.54,-8.84 2.1,0 7.8,1.04 12.74,2.24 9.74,2.55 13.64,1.95 18.89,-2.69 4.04,-3.75 4.49,-12.15 0.9,-17.39 -1.35,-1.95 -6.15,-5.1 -10.64,-7.05 -9.9,-4.34 -21.44,-4.64 -33.88,-0.6l0 0.01zm-102.97 2.54c-3.45,1.2 -8.99,6.75 -11.24,10.95 -1.05,2.09 -4.35,11.09 -7.49,20.23 -8.25,23.68 -10.2,29.23 -17.99,50.96 -9.29,25.63 -11.24,31.93 -11.24,36.27 0,4.95 7.64,12.44 12.74,12.44 2.1,0 11.39,-3.44 20.68,-7.49 39.87,-17.99 41.22,-18.59 43.62,-16.64 1.2,1.05 3.3,4.95 4.5,8.69 3.14,9.15 6.29,12.44 11.99,12.44 7.49,0 10.94,-1.49 12.74,-5.39 2.85,-6.3 1.95,-11.69 -6,-34.62 -4.19,-12.15 -11.84,-34.33 -16.93,-49.17 -10.5,-30.57 -11.4,-32.22 -16.79,-36.57 -3.9,-3 -13.19,-4.05 -18.59,-2.1l0 0zm14.09 53.51c7.79,24.58 8.24,23.08 -9.59,31.48 -8.25,3.75 -15.29,6.89 -15.74,6.89 -1.65,0 -0.45,-4.79 6.6,-27.28 7.79,-24.88 10.04,-30.27 12.14,-28.92 0.6,0.45 3.59,8.39 6.59,17.83l0 0zm-130.25 -50.51c-16.34,4.95 -29.98,17.24 -37.47,33.73 -5.25,11.39 -7.19,23.53 -6.3,38.97 0.6,11.39 1.35,14.53 6.45,24.43 3.75,7.64 8.09,13.79 13.19,18.28 11.54,10.49 18.28,12.89 36.87,13.64 13.64,0.45 16.94,0.15 24.73,-2.85 11.69,-4.34 17.24,-10.19 17.24,-17.98 0,-11.24 -8.84,-15.59 -21.44,-10.49 -11.84,4.64 -19.03,5.39 -27.87,2.39 -13.49,-4.49 -20.39,-17.38 -19.94,-37.17 0.6,-28.63 19.79,-43.76 44.82,-35.67 15.13,4.8 22.93,1.2 22.93,-11.09 0,-6.75 -6.3,-13.04 -16.34,-16.49 -8.39,-2.85 -26.83,-2.7 -36.87,0.3l0 0zm532.54 24.88c-9.29,2.55 -19.03,11.24 -24.58,21.89 -4.65,8.69 -5.1,10.64 -5.1,22.48 0.15,21.43 8.4,37.17 23.68,44.66 17.39,8.55 38.38,4.2 50.22,-10.34 7.19,-8.99 8.69,-12.14 10.19,-22.78 5.09,-35.97 -22.78,-64.75 -54.41,-55.91l0 0zm22.18 21.89c9.6,5.84 13.64,23.08 8.85,37.47 -2.85,8.99 -6.9,12.14 -16.19,13.19 -8.69,0.9 -13.79,-1.35 -18.14,-8.25 -4.64,-7.49 -5.99,-14.54 -4.64,-25.18 0.75,-6.74 1.95,-9.29 6.59,-14.09 4.95,-5.24 6.6,-5.99 12.29,-5.99 3.9,0 8.55,1.2 11.24,2.85zm-127.55 -19.19c-6.59,3.9 -6.74,4.8 -6.74,42.87 0,50.66 -0.75,49.61 28.62,47.96 19.49,-1.2 26.38,-3.75 34.33,-12.59 7.34,-8.39 10.79,-18.74 10.94,-32.53 0,-20.68 -6.59,-33.87 -21.43,-41.96 -6.9,-3.75 -9.6,-4.2 -25.18,-4.8 -11.84,-0.45 -18.59,-0.15 -20.54,1.05l0 0zm35.37 21.58c6.45,3.45 9.3,9.3 10.05,21.14 0.75,12.59 -1.65,19.03 -9.15,24.13 -6.14,4.19 -19.63,4.94 -21.13,1.05 -1.8,-4.8 -1.05,-46.32 1.05,-48.41 2.1,-2.25 13.04,-1.05 19.18,2.09zm48.87 92.03c-13.64,4.5 -23.39,12.44 -31.63,25.48 -8.09,12.74 -10.34,21.74 -10.49,41.37 0,17.09 0.15,18.59 4.95,29.83 6.29,14.69 18.13,27.43 31.17,33.57 7.2,3.3 11.09,4.05 23.68,4.5 12.59,0.45 16.34,0 23.83,-2.7 11.85,-4.5 25.64,-17.99 32.53,-32.22 5.1,-10.35 5.1,-10.5 5.1,-32.23l0 -21.88 -5.85 -11.84c-7.04,-14.24 -17.84,-25.48 -30.58,-31.63 -11.39,-5.54 -29.82,-6.44 -42.71,-2.25l0 0zm29.52 26.68c8.85,3.3 14.54,10.04 18.74,22.63 3.9,11.55 4.05,22.79 0.15,35.23 -4.8,15.44 -17.84,25.03 -31.63,23.08 -20.38,-2.7 -31.17,-20.09 -29.37,-47.51 1.8,-27.88 19.03,-41.67 42.11,-33.43l0 0zm-167.72 -23.68c-1.65,0.75 -4.34,2.85 -5.99,4.65 -2.85,3.29 -3,5.09 -2.55,62.8l0.45 59.35 4.35 4.05c4.94,4.5 9.59,5.24 15.73,2.4 6.6,-3 8.25,-8.4 8.25,-25.78 0,-18.74 -0.6,-18.14 18.28,-19.34 10.8,-0.6 14.39,-1.5 20.99,-5.09 8.99,-5.1 17.53,-15.29 20.38,-24.29 2.25,-7.64 2.4,-23.53 0.15,-30.27 -3,-8.84 -12.29,-19.79 -20.98,-24.58 -7.95,-4.35 -8.55,-4.5 -32.08,-4.8 -13.19,-0.3 -25.33,0.15 -26.98,0.9zm44.97 27.13c13.04,8.09 9.89,30.28 -4.95,34.47 -9.29,2.55 -17.98,1.95 -19.78,-1.35 -2.1,-4.19 -1.95,-32.07 0.3,-34.32 3,-3 18.88,-2.25 24.43,1.2zm-117.21 -25.33c-6.75,1.95 -9.74,7.34 -22.18,40.32 -8.1,21.58 -8.1,21.43 -10.2,19.78 -1.05,-0.9 -2.84,-4.19 -3.89,-7.34 -1.2,-3.15 -3.6,-9.15 -5.55,-13.49 -1.95,-4.2 -3.6,-8.55 -3.6,-9.44 0,-1.05 -0.9,-3.6 -2.09,-5.7 -1.2,-2.25 -3.75,-7.19 -5.55,-11.24 -4.95,-10.34 -7.64,-12.29 -17.24,-12.14 -11.69,0.3 -17.08,5.99 -19.18,20.08 -1.5,9.44 -7.5,48.71 -12.14,77.94 -2.1,13.64 -3.45,26.08 -2.85,27.73 2.25,6.45 6.89,9.74 13.34,9.74 12.44,0 13.34,-2.55 19.48,-53.21 2.1,-17.23 4.2,-31.77 4.65,-32.22 1.65,-1.65 4.95,5.24 13.34,27.88 8.99,23.68 11.69,28.03 19.78,29.97 4.5,1.2 12.15,-1.94 14.69,-5.99 1.2,-1.8 5.85,-13.64 10.65,-26.38 4.64,-12.74 9.14,-23.83 9.89,-24.73 2.1,-2.25 3.75,1.65 4.79,11.09 1.2,9.59 3.45,26.83 5.4,39.87 0.75,4.95 1.8,12.29 2.25,16.34 1.35,10.04 7.94,16.63 15.59,15.29 6.14,-0.9 11.69,-5.85 12.74,-11.25 0.45,-2.09 0.3,-7.64 -0.45,-12.14 -1.65,-11.39 -8.85,-52.31 -11.39,-65.95 -1.2,-6.14 -2.55,-14.98 -3,-19.48 -0.6,-4.5 -2.7,-11.69 -4.8,-15.89 -5.09,-10.49 -10.64,-12.89 -22.48,-9.44zm-183.76 4.2c-7.49,4.79 -6.89,3.74 -23.98,52.6 -5.4,15.29 -12.89,36.28 -16.64,46.62 -6.59,17.83 -6.89,19.03 -5.09,24.73 1.49,4.35 3.29,6.59 7.49,8.54 5.25,2.55 6,2.55 12.59,0.3 3.9,-1.35 8.84,-3.3 10.94,-4.49 10.19,-5.7 44.52,-20.24 46.17,-19.64 1.05,0.45 2.69,3.9 3.59,7.79 1.05,3.75 3.45,8.85 5.4,11.25 3,3.59 4.95,4.34 10.19,4.34 5.4,0 7.2,-0.75 10.34,-4.64 2.1,-2.55 3.9,-6.45 3.9,-8.55 0,-2.25 -3.15,-12.89 -6.89,-23.53 -3.6,-10.79 -9.6,-27.88 -13.19,-38.22 -3.6,-10.34 -8.7,-24.73 -11.09,-31.92 -2.55,-7.35 -6.15,-15.59 -7.95,-18.44 -5.69,-9.29 -17.39,-12.44 -25.78,-6.75l0 0.01zm12.14 40.16c0.9,2.4 3.75,11.25 6.45,19.64 5.39,17.09 5.09,18.89 -2.55,22.78 -13.04,6.6 -22.49,10.19 -23.68,8.99 -1.8,-1.79 14.24,-55.45 16.48,-55.45 0.9,0 2.4,1.8 3.3,4.04zm-127.85 -38.67c-7.34,1.95 -19.04,8.4 -26.38,14.99 -4.95,4.2 -8.99,10.04 -13.49,19.19 -6.44,12.89 -6.6,13.64 -7.19,30.27 -0.3,10.65 0.15,19.34 1.34,23.24 5.7,19.48 16.49,33.42 32.08,41.36 8.69,4.35 11.69,5.1 24.58,5.7 12.14,0.45 16.04,0.15 23.53,-2.55 11.84,-4.05 18.74,-11.24 18.74,-19.48 0,-11.69 -7.2,-14.24 -24.58,-8.55 -6.6,2.1 -14.09,3.9 -16.64,3.9 -11.09,-0.15 -23.98,-10.94 -28.63,-23.68 -1.05,-3 -1.95,-11.24 -2.1,-18.14 0,-10.94 0.6,-13.64 4.65,-22.03 3.75,-8.09 5.7,-10.34 12.29,-14.09 6.45,-3.75 9.44,-4.5 17.54,-4.35 5.39,0 12.44,0.9 15.74,2.1 12.44,4.5 20.23,0.9 20.23,-9.44 0,-7.5 -3.45,-11.84 -12.59,-16.19 -6.45,-3 -9.89,-3.6 -21.13,-3.45 -7.35,0.15 -15.44,0.6 -17.99,1.2l0 0z"/>
 </g>
</svg>
