<?xml version="1.0" encoding="UTF-8"?>
<!DOCTYPE svg PUBLIC "-//W3C//DTD SVG 1.0//EN" "http://www.w3.org/TR/2001/REC-SVG-20010904/DTD/svg10.dtd">
<!-- Creator: CorelDRAW -->
<svg xmlns="http://www.w3.org/2000/svg" xml:space="preserve" width="0.8466mm" height="0.8466mm" version="1.0" style="shape-rendering:geometricPrecision; text-rendering:geometricPrecision; image-rendering:optimizeQuality; fill-rule:evenodd; clip-rule:evenodd"
viewBox="0 0 84.66 84.66"
 xmlns:xlink="http://www.w3.org/1999/xlink"
 xmlns:xodm="http://www.corel.com/coreldraw/odm/2003">
 <defs>
  <style type="text/css">
   <![CDATA[
    .fil0 {fill:#A9ABAE}
    .fil1 {fill:#727376}
   ]]>
  </style>
 </defs>
 <g id="Camada_x0020_1">
  <metadata id="CorelCorpID_0Corel-Layer"/>
  <path class="fil0" d="M10.77 51.96l-2.3 5.79 4.39 -0.45c0.9,1.51 1.51,3.09 2.36,4.48 8.89,14.45 26.56,20.91 42.55,13.18 2.82,-1.36 6.51,-3.86 8.18,-5.68 2.86,-3.09 3.49,-3.15 6.21,-7.65 1.25,-2.08 3.7,-7.08 4.04,-9.86 -0.63,-0.34 -12.85,-3.26 -13.9,-3.34l-0.47 0.05c-1.43,7.75 -6.05,10.14 -7.16,11.76 -0.42,0.61 0.17,0.1 -0.41,0.51 -0.95,0.25 -7.21,6.02 -16.31,2.66 -4.58,-1.7 -9.09,-6 -10.79,-10.3 1.26,-0.97 3.6,-1.96 4.73,-2.97 -1.45,-1.29 -5.32,-3.58 -6.95,-4.94l-4.48 -3.07c-0.8,-0.58 -3.62,-2.68 -4.43,-2.95 -0.26,1.03 -0.87,2.24 -1.28,3.25 -0.45,1.13 -3.61,9.2 -3.98,9.53z"/>
  <path class="fil1" d="M10.77 51.96c0.37,-0.33 3.53,-8.4 3.98,-9.53 0.41,-1.01 1.02,-2.22 1.28,-3.25 0.81,0.27 3.63,2.37 4.43,2.95l4.48 3.07c-0.85,-3.54 0.39,-9.4 1.59,-12.34 2.77,-6.8 8.74,-12.32 16.48,-12.62 3.97,-0.16 8.9,1.55 10.97,3.63 -0.26,0.62 -1.58,2.2 -2.11,2.86 -0.52,0.65 -1.87,2.26 -2.12,2.9l21.96 0.01 -4.51 -22.47c-0.51,0.36 -1.8,2.11 -2.24,2.69 -0.49,0.66 -1.77,2.43 -2.28,2.74 -6.31,-4.01 -11.75,-6.43 -20.04,-6.17 -20.27,0.63 -34.61,19.55 -32.63,39.6 0.14,1.37 0.98,4.99 0.76,5.93z"/>
  <path class="fil1" d="M53.24 48.81l0.03 0.83 -9.88 1.51c-0.25,0.63 1,4.92 1.13,5.48 0.35,1.45 0.8,4.62 1.49,5.64 1.17,-0.11 2.93,-0.66 4.14,-0.94 0.74,-0.17 1.4,-0.33 2.09,-0.5 0.35,-0.09 0.78,-0.23 1.08,-0.29 1,-0.2 0.81,0.03 0.94,0.21 0.58,-0.41 -0.01,0.1 0.41,-0.51 1.11,-1.62 5.73,-4.01 7.16,-11.76l0.47 -0.05c-0.77,-0.5 -7.05,1.17 -8.61,1.32 -0.25,-0.5 -0.11,-0.52 -0.45,-0.94z"/>
  <path class="fil0" d="M43.39 51.15l9.88 -1.51 -0.03 -0.83 -1 -6.75 -4.5 4.51c-0.72,0.78 -1.42,1.62 -2.18,2.32 -0.89,0.82 -1.56,1.39 -2.17,2.26z"/>
 </g>
</svg>
