<?xml version="1.0" encoding="UTF-8"?>
<!DOCTYPE svg PUBLIC "-//W3C//DTD SVG 1.0//EN" "http://www.w3.org/TR/2001/REC-SVG-20010904/DTD/svg10.dtd">
<!-- Creator: CorelDRAW -->
<svg xmlns="http://www.w3.org/2000/svg" xml:space="preserve" width="20mm" height="15mm" version="1.0" style="shape-rendering:geometricPrecision; text-rendering:geometricPrecision; image-rendering:optimizeQuality; fill-rule:evenodd; clip-rule:evenodd"
viewBox="0 0 2000 1500"
 xmlns:xlink="http://www.w3.org/1999/xlink"
 xmlns:xodm="http://www.corel.com/coreldraw/odm/2003">
 <defs>
  <style type="text/css">
   <![CDATA[
    .fil0 {fill:#E6E7E8}
    .fil1 {fill:#FFF112}
    .fil3 {fill:black;fill-rule:nonzero}
    .fil4 {fill:#354C9C;fill-rule:nonzero}
    .fil2 {fill:#354C9C;fill-rule:nonzero}
   ]]>
  </style>
   <clipPath id="id0">
    <rect x="31308.47" y="-3082.2" width="20291" height="7301.58"/>
   </clipPath>
 </defs>
 <g id="Camada_x0020_1">
  <metadata id="CorelCorpID_0Corel-Layer"/>
  <rect class="fil0" x="-129.12" y="-87.66" width="2243.17" height="1682.38"/>
  <g style="clip-path:url(#id0)">
   <image x="31308.47" y="-3082.2" width="20291" height="7301.58" xlink:href="03.griffe-pneus_Images\03.griffe-pneus_ImgID1.png"/>
  </g>
  <rect class="fil1" x="-105.25" y="-74.45" width="2196.14" height="810.57"/>
  <g id="_2424272464816">
   <path class="fil2" d="M635.7 465.68c-20.4,5.75 -38.19,21.97 -44.2,39.76 -2.88,8.37 -3.93,9.15 -13.08,9.15 -9.68,0 -10.47,0.53 -12.82,9.68 -6.8,25.64 -6.8,24.33 2.09,24.33 10.46,0 10.46,0.26 -2.35,53.36 -5.76,23.81 -10.47,44.47 -10.47,46.04 0,1.57 9.94,2.62 27.47,2.62l27.21 0 3.13 -11.25c1.57,-6.02 7.33,-28.78 12.56,-50.23l9.68 -39.23 30.87 -0.79c28.51,-0.52 30.6,-0.26 29.29,3.93 -0.78,2.61 -6.01,23.54 -11.77,46.82 -5.75,23.28 -11.25,43.94 -12.29,46.3 -1.31,3.92 1.57,4.45 26.94,4.45l28.51 0 11.51 -46.3c6.54,-25.38 13.61,-48.66 16.22,-51.54 3.4,-4.44 6.8,-5.23 20.14,-4.97l15.7 0.27 3.66 -15.96 3.4 -16.22 -16.48 -0.78c-14.12,-0.53 -16.74,-1.57 -15.96,-5.24 1.31,-6.8 12.56,-10.98 30.87,-10.98l17 0 4.45 -16.48c2.35,-8.9 3.66,-16.74 2.88,-17.53 -0.53,-0.78 -15.44,-1.31 -32.96,-1.31 -24.59,0 -34.79,1.05 -44.21,4.71 -14.91,5.76 -29.56,21.45 -33.48,35.58l-2.88 10.72 -30.08 0c-27.21,0 -30.08,-0.52 -29.3,-4.44 1.31,-7.33 12.56,-11.25 31.13,-11.25l17.26 0 4.45 -15.96c2.36,-8.89 3.93,-16.74 3.14,-17.26 -3.14,-3.14 -55.98,-3.14 -67.23,0l0 0zm-134.19 13.6c-2.35,7.85 -4.97,15.96 -5.75,18.31 -1.31,3.4 2.61,3.92 30.86,3.92l32.7 0 5.23 -18.31 5.5 -18.31 -64.61 0 -3.93 14.39zm-281.99 -7.59c-35.83,8.63 -69.05,34.01 -82.66,63.05 -5.49,12.29 -7.06,20.14 -7.84,40.8 -1.05,23.28 -0.53,26.42 5.75,39.5 12.03,24.33 34.01,35.84 73.77,37.67 25.63,1.05 71.67,-4.45 81.87,-9.94 2.36,-1.05 6.28,-9.68 8.64,-18.84 2.61,-8.89 7.32,-26.68 10.98,-39.49l6.28 -22.76 -64.35 0 -3.14 22.76c-4.71,35.05 -3.4,32.96 -21.19,31.39 -26.15,-2.36 -41.59,-18.31 -41.59,-42.9 0.26,-24.07 14.39,-45.52 37.93,-57.81 10.73,-5.5 16.74,-6.54 32.7,-6.54 20.93,0 33.48,3.92 50.22,15.69 5.5,3.66 11.51,6.02 13.34,5.23 1.84,-0.78 4.97,-8.11 6.81,-16.48 1.83,-8.63 3.92,-18.05 4.7,-21.18 1.05,-4.97 -0.52,-6.81 -10.2,-10.99 -29.56,-12.56 -72.19,-16.48 -102.02,-9.16zm871.6 2.1c0,0.78 -10.46,40.02 -23.54,87.37 -12.82,47.34 -23.55,86.84 -23.55,87.89 0,0.78 13.35,1.57 29.83,1.57l30.08 0 4.18 -15.18c2.36,-8.1 5.76,-20.14 7.59,-26.68l3.4 -11.77 31.13 -1.57c49.44,-2.62 81.35,-15.96 99.14,-41.07 6.8,-9.94 7.85,-13.6 7.85,-29.3 0,-15.95 -0.79,-18.83 -8.11,-27.98 -4.45,-5.5 -13.87,-12.82 -20.93,-16.48 -12.29,-6.28 -14.39,-6.54 -74.81,-7.33 -34.27,-0.52 -62.26,-0.26 -62.26,0.53l0 0zm93.91 41.59c10.2,4.71 10.99,20.14 1.31,27.73 -11.25,8.89 -53.37,17.52 -53.37,10.98 0,-6.54 8.64,-38.45 11.51,-41.85 3.14,-4.18 29.3,-2.35 40.55,3.14l0 0zm-844.39 63.82c-9.42,35.84 -17.27,66.45 -18.05,68.02 -0.79,2.61 5.49,3.4 26.42,3.4 26.16,0 27.46,-0.27 29.03,-6.02 0.79,-3.14 5.24,-19.88 9.68,-36.88 4.19,-17.27 9.16,-33.48 10.47,-36.1 4.44,-8.11 13.6,-11.25 38.71,-12.56l24.59 -1.3 4.71 -18.32c2.61,-10.2 4.97,-19.88 4.97,-21.97 0,-5.49 -32.44,-2.35 -47.87,4.45l-12.3 5.49 0 -6.54c0,-6.28 0,-6.28 -26.94,-6.28l-26.68 0 -16.74 64.61zm1390.57 -65.39c-1.04,1.83 -11.24,39.24 -23.01,84.75 -1.83,7.85 -4.45,10.46 -12.82,13.87 -12.56,4.97 -23.81,5.49 -28.25,1.04 -4.97,-4.97 -3.93,-15.43 6.01,-56.24 4.97,-20.93 9.16,-38.97 9.16,-40.28 0,-1.31 -12.3,-2.36 -27.21,-2.36l-26.94 0 -12.29 45.26c-6.54,25.11 -12.04,50.48 -12.04,56.5 0,14.91 6.8,28.25 16.48,33.48 10.47,5.23 48.92,3.66 61.21,-2.87 10.47,-5.24 13.87,-5.24 13.87,-0.27 0,3.14 4.71,3.93 26.94,3.93l26.68 0 16.74 -64.88c9.16,-35.57 16.74,-66.44 17.01,-68.53 0.26,-3.14 -4.45,-4.19 -25.12,-4.71 -13.86,-0.26 -25.89,0.26 -26.42,1.31zm-375.63 3.4c-12.56,4.45 -14.39,4.71 -17,1.05 -2.36,-3.14 -7.85,-3.67 -27.73,-3.14l-24.59 0.78 -16.48 65.4c-8.89,35.83 -16.48,66.18 -16.48,67.22 0,1.31 11.77,2.1 26.16,2.1l26.16 0 1.83 -7.33c0.78,-3.92 6.02,-24.06 10.99,-44.99 9.15,-37.41 9.68,-37.93 18.57,-42.38 4.97,-2.35 13.6,-4.44 19.09,-4.71 16.22,0 17.01,5.24 6.02,53.63 -5.23,22.76 -9.42,42.38 -9.42,43.68 0,2.88 49.18,2.62 51.01,-0.26 0.79,-1.57 6.28,-19.36 12.04,-40.02 15.95,-55.19 14.91,-79.26 -4.19,-91.03 -11.25,-6.8 -36.62,-6.8 -55.98,0l0 0zm-865.32 -0.79c-0.78,2.1 -10.72,33.75 -21.71,70.37l-20.14 66.44 64.35 0 5.75 -19.09c2.88,-10.21 12.3,-41.07 20.67,-68.28 8.63,-27.46 14.91,-50.74 14.13,-51.79 -0.79,-1.31 -14.91,-2.09 -31.39,-1.83 -24.33,0.26 -30.35,1.04 -31.66,4.18l0 0zm1356.84 -5.49c-40.29,6.02 -59.64,19.36 -65.4,44.21 -1.31,5.23 -1.05,13.34 0.52,18.57 2.88,10.46 7.33,13.08 41.6,23.28 40.54,11.77 44.73,23.55 7.58,21.45 -10.72,-0.78 -26.68,-3.92 -35.31,-7.06 -25.38,-9.16 -25.38,-9.16 -29.3,10.46 -1.83,9.16 -2.88,18.31 -2.35,19.88 2.09,5.23 29.82,14.13 49.44,15.7 34,2.87 69.05,-8.37 86.58,-27.73 14.91,-16.48 15.69,-28.78 2.62,-44.47 -9.42,-11.25 -23.29,-17.53 -42.64,-19.88 -9.94,-1.05 -18.57,-3.66 -21.98,-6.54 -5.49,-4.71 -5.49,-5.23 -1.04,-8.63 11.77,-9.16 37.67,-7.33 59.64,3.92 15.43,8.11 18.57,6.28 22.5,-13.08 1.83,-9.41 2.61,-17.78 1.57,-18.83 -6.02,-5.49 -58.86,-13.34 -74.03,-11.25l0 0zm-306.06 37.67c10.73,10.72 7.33,13.08 -19.62,13.08 -13.6,0 -24.85,-1.05 -24.85,-2.36 0,-1.3 3.67,-5.49 8.11,-9.15 10.21,-8.63 28.52,-9.42 36.36,-1.57zm-36.09 -36.62c-39.77,7.32 -66.45,36.36 -70.37,76.64 -4.71,50.49 30.87,70.89 106.2,61.21 17.79,-2.35 33.22,-5.23 34.53,-6.28 1.05,-1.04 3.66,-9.94 5.76,-19.88 4.71,-20.92 5.49,-20.4 -23.55,-10.72 -22.23,7.59 -47.87,9.42 -57.54,3.92 -6.81,-3.4 -14.91,-17.52 -12.56,-21.19 1.05,-1.56 22.5,-2.61 52.58,-2.61l50.74 0 3.14 -7.33c1.57,-3.92 2.88,-14.64 3.14,-24.06 0.26,-22.76 -6.8,-34.79 -25.89,-43.42 -15.7,-7.33 -44.73,-9.94 -66.18,-6.28l0 0zm-617.34 35.83c2.61,2.36 4.71,6.28 4.71,9.16 0,4.18 -2.36,4.71 -23.55,4.71 -19.35,0 -23.54,-0.79 -23.54,-3.93 0,-11.24 32.44,-18.83 42.38,-9.94zm-37.15 -35.05c-43.42,9.94 -69.05,41.07 -68.79,84.23 0,37.41 23.8,54.67 75.33,54.67 27.73,0 63.05,-4.97 65.66,-9.41 2.88,-4.45 9.16,-34.27 7.59,-35.58 -0.79,-0.78 -11.25,1.57 -23.02,5.23 -27.47,8.64 -40.29,10.47 -52.06,7.07 -10.46,-2.62 -20.4,-13.08 -20.4,-20.93 0,-4.71 2.88,-4.97 52.05,-4.97 45,0 52.32,-0.52 53.63,-4.19 3.14,-7.84 4.97,-32.17 3.14,-41.33 -2.36,-12.29 -14.65,-26.15 -27.73,-31.39 -14.13,-5.75 -47.87,-7.32 -65.4,-3.4l0 0z"/>
   <polygon class="fil2" points="-7.53,705.55 -7.53,721.24 1750.31,721.24 1750.31,689.85 -7.53,689.85 "/>
  </g>
  <g id="_2424272464720">
   <path class="fil3" d="M595.55 1179.93c13.73,13.49 15.42,33 4.58,50.34l-5.3 8.44 -2.17 -8.44c-2.41,-9.39 -2.41,-13.73 -0.24,-27.94 0.96,-7.47 0.24,-12.29 -3.61,-19.99 -6.03,-11.81 -3.38,-12.77 6.74,-2.41l0 0zm-231.02 -37.34c4.1,12.04 0,24.81 -10.84,34.45 -11.56,10.11 -22.4,11.8 -36.14,5.05 -6.02,-2.89 -10.84,-6.26 -10.84,-7.46 0,-0.97 1.69,-1.45 3.62,-0.49 2.17,0.73 8.67,0 14.45,-1.68 13.25,-3.61 26.26,-17.35 30.11,-31.32 3.14,-11.32 5.79,-10.84 9.64,1.45zm22.16 0.96c9.16,16.62 3.37,39.03 -13.25,51.55 -6.74,5.06 -25.29,6.75 -33.96,3.14 -4.1,-1.69 -3.14,-2.65 7.22,-7.47 24.58,-11.57 33.49,-32.76 23.85,-55.89l-3.61 -8.67 7.71 4.57c4.09,2.41 9.39,8.2 12.04,12.77l0 0zm8.43 -15.66c11.57,4.82 17.11,9.88 22.65,20.96 9.15,18.07 3.37,40.95 -13.73,54.2 -6.99,5.06 -12.05,6.75 -24.09,7.47 -15.18,0.96 -21.44,-2.41 -9.88,-5.3 15.66,-3.85 28.19,-22.64 28.19,-42.16 0,-14.69 -3.14,-23.36 -11.57,-32.28 -6.98,-7.46 -4.57,-8.19 8.43,-2.89zm-47.45 0.73c0,22.16 -13.25,36.61 -33.73,36.61 -16.86,0 -30.11,-9.87 -34.93,-26.01 -1.45,-5.3 -1.2,-5.54 3.85,-2.65 20.96,11.08 49.39,2.65 57.58,-17.11 3.85,-9.63 7.23,-5.54 7.23,9.16l0 0zm171.28 -110.34c2.4,1.45 4.57,3.86 4.57,5.54 0,1.69 3.13,4.34 7.23,6.03 10.6,4.82 18.07,18.31 18.55,34.45 0,7.46 1.93,16.86 4.09,20.95 9.4,18.07 1.45,37.58 -18.54,45.53 -8.92,3.62 -9.4,4.1 -4.1,6.03 4.1,1.44 4.82,2.65 2.65,5.3 -2.17,2.65 -1.45,3.61 3.85,4.57 16.38,3.62 44.81,32.76 47.94,49.15 1.45,7.46 0.73,9.39 -3.85,13.25 -11.81,9.63 -84.32,3.13 -131.53,-12.05l-21.44 -6.74 0.72 -17.83c0.72,-15.42 0,-19.75 -5.06,-29.15l-6.02 -11.08 14.69 -1.45c13.01,-1.2 16.63,-0.72 26.98,4.58 6.75,3.37 10.6,4.82 9.16,3.13 -4.58,-4.57 -3.86,-6.98 2.41,-6.98 4.09,0 2.89,-1.21 -4.34,-4.58 -15.42,-6.99 -22.88,-17.59 -22.88,-32.04 0,-10.6 0.96,-13.01 8.91,-20.96 5.3,-5.3 8.91,-11.08 8.91,-14.93 0.48,-9.64 11.32,-23.37 23.61,-29.63 6.26,-3.14 13.01,-7.47 15.18,-9.64 4.57,-4.34 11.56,-5.06 18.31,-1.45l0 0zm-243.55 -16.38c4.33,11.08 8.43,18.79 8.91,17.35 0.48,-1.45 -1.93,-8.67 -5.3,-16.38 -6.74,-15.42 -7.23,-18.31 -2.89,-18.31 3.85,0 24.81,42.4 23.85,47.94 -1.45,6.74 5.78,-4.82 8.91,-14.7 3.14,-9.39 8.43,-15.17 11.81,-13.01 1.2,0.73 0,13.49 -2.41,28.43 -4.1,23.37 -5.06,39.03 -3.86,51.79 0.49,5.3 4.34,0.48 4.34,-5.54 0,-14.93 14.7,3.37 16.14,20 1.21,13.97 -2.41,21.44 -13.49,28.9 -14.93,10.12 -35.65,5.79 -44.32,-8.91 -6.03,-9.88 -7.47,-24.33 -3.38,-30.11 2.17,-2.65 4.1,-4.34 4.58,-3.62 0.48,0.73 2.41,4.34 4.34,8.44 2.16,3.85 5.78,7.46 8.19,7.94 4.09,0.97 4.33,0.73 0.48,-4.57 -2.17,-3.14 -3.85,-8.43 -3.85,-12.05 0,-4.33 -1.45,-6.74 -4.82,-7.71 -9.4,-2.41 -28.19,-39.74 -30.84,-61.67 -1.68,-14.93 3.86,-12.04 9.4,4.82 2.41,6.99 4.57,13.25 4.57,13.49 0,0.48 0.97,0.73 1.93,0.73 3.62,0 -6.74,-27.47 -11.8,-31.8 -5.78,-5.06 -6.03,-9.16 0,-9.16 3.13,0 5.78,3.86 9.63,14.22 2.89,7.7 6.99,15.65 9.16,17.34 2.16,1.93 3.37,2.17 2.89,0.96 -0.73,-1.44 -2.65,-5.78 -4.34,-9.63 -10.12,-21.92 -14.21,-32.28 -12.77,-33.49 3.86,-4.09 7.47,0.48 14.94,18.31l0 0zm-21.2 -24.09c-1.45,1.45 -2.89,4.1 -2.89,5.79 0,1.44 -1.45,4.09 -3.38,5.54 -1.92,1.44 -4.09,7.7 -5.05,13.73 -1.93,13.49 2.89,31.31 16.14,57.09 8.19,16.38 9.15,20.23 6.98,25.05 -3.37,7.23 -3.37,23.61 -0.24,29.63 1.45,2.65 3.13,9.64 3.86,15.9 1.92,17.35 4.57,21.68 24.57,41.44 22.4,21.92 33.96,30.59 46.01,34.45 4.82,1.44 10.36,4.09 12.28,5.78 1.93,1.44 5.54,3.61 7.95,4.33 2.65,0.97 4.1,4.1 4.1,8.68 0,9.63 2.17,14.69 6.5,14.69 2.65,0 3.38,-2.41 2.65,-8.91 -0.72,-8.68 -0.72,-8.68 11.57,-11.57 13.49,-3.13 28.18,-11.08 33.24,-18.3 3.13,-4.58 3.61,-4.58 24.57,2.41 32.04,10.84 74.2,17.58 109.37,18.06l30.11 0.24 2.17 9.16c2.17,8.19 2.89,8.91 10.84,8.91 6.99,0 9.64,-1.44 12.77,-6.5l3.85 -6.75 1.69 6.75c1.93,7.47 8.43,8.91 8.43,1.68 0,-2.65 -1.69,-8.91 -3.61,-13.73 -1.93,-4.57 -3.62,-12.28 -3.62,-16.86 0,-4.34 -1.44,-11.56 -3.13,-15.9 -4.58,-10.36 -20.96,-24.81 -30.83,-26.98 -4.58,-0.96 -12.05,-4.82 -16.63,-8.43 -4.57,-3.61 -12.04,-8.43 -16.38,-10.6l-7.95 -4.1 7.71 -5.3c16.14,-10.84 21.92,-32.76 13.25,-50.1 -2.17,-4.34 -3.85,-13.01 -3.85,-19.52 0,-15.41 -6.03,-26.74 -22.89,-42.39 -11.56,-10.84 -14.69,-12.53 -23.36,-12.53 -18.07,0 -50.35,25.29 -57.1,44.57 -1.68,5.3 -5.3,11.8 -7.71,14.45 -11.8,13.01 -13.97,31.08 -5.54,47.22l3.38 6.5 -17.59 1.69c-13.25,1.2 -19.51,0.72 -26.26,-2.17 -5.54,-2.41 -15.42,-3.86 -26.02,-3.62 -9.39,0.25 -17.34,0 -17.58,-0.48 -9.88,-15.17 -13.49,-21.92 -14.94,-28.42 -0.96,-4.58 -5.54,-11.81 -10.6,-16.62l-8.91 -8.44 4.58 -30.35c4.33,-28.91 4.33,-30.11 0.24,-33.24 -6.75,-5.06 -14.7,-3.62 -20,3.37 -2.89,3.37 -5.54,5.78 -6.02,5.3 -0.24,-0.48 -3.85,-6.75 -7.71,-13.97 -3.85,-6.99 -9.15,-14.22 -11.8,-15.9 -6.51,-3.86 -23.37,-4.58 -27.22,-0.73l0 0zm266.67 128.64c0.48,0.49 -3.37,0.97 -8.91,0.97 -5.3,0 -10.36,-0.97 -11.08,-2.17 -1.45,-1.93 17.58,-0.72 19.99,1.2l0 0zm-42.15 -13.01c-0.97,1.69 -0.97,2.41 0,1.45 1.2,-0.96 3.13,-0.72 4.81,0.72 22.41,18.79 27.47,20 43.85,10.36 5.78,-3.37 10.6,-6.5 10.6,-6.74 0,-0.24 -7.23,0 -16.38,0.48 -16.63,0.96 -36.62,-2.65 -36.62,-6.75 0,-3.37 -4.34,-2.89 -6.26,0.49l0 -0.01zm59.5 -28.42c1.93,3.85 1.93,7.23 0.24,9.88 -1.93,3.61 -2.17,3.37 -2.17,-2.41 0,-6.51 -4.58,-11.57 -8.43,-9.4 -0.96,0.72 -1.21,2.65 -0.24,4.58 0.72,2.17 -0.24,3.61 -2.65,3.61 -4.58,0 -4.82,-1.2 -1.45,-7.47 3.62,-6.5 11.57,-5.78 14.7,1.21l0 0zm-15.66 -5.3c-4.82,6.74 -5.06,19.75 -0.48,23.61 10.12,8.19 23.37,-5.54 19.03,-20.24 -2.65,-9.63 -12.77,-11.56 -18.55,-3.37zm-17.35 -1.45c2.41,6.03 1.69,14.94 -1.44,16.87 -1.69,0.96 -1.93,0.72 -0.97,-1.21 3.14,-5.06 -0.72,-14.69 -5.78,-14.69 -3.13,0 -4.33,1.2 -3.37,3.61 0.96,2.17 0,3.61 -2.41,3.61 -4.57,0 -4.82,-1.2 -1.44,-7.46 3.13,-5.54 13.25,-6.03 15.41,-0.73l0 0zm-15.17 -5.3c-1.69,1.93 -3.62,7.23 -4.34,11.81 -0.96,6.5 -0.24,9.39 3.86,13.49 6.26,6.26 8.67,6.26 14.69,0.24 5.78,-5.78 6.5,-19.75 0.96,-25.05 -4.57,-4.82 -11.56,-5.06 -15.17,-0.49l0 0z"/>
   <path class="fil4" d="M1583.48 1130.54c-9.88,27.22 -18.31,50.59 -18.8,51.8 -0.48,1.2 8.2,2.16 20.48,2.16l21.2 0 13.01 -34.93c6.99,-19.27 13.25,-34.93 13.97,-34.93 0.73,0 0.48,15.66 -0.48,34.93l-1.69 34.93 36.14 0c32.04,0 36.37,-0.48 37.82,-4.33 0.96,-2.17 8.43,-22.65 16.86,-45.05 8.43,-22.64 16.38,-43.84 17.83,-47.7l2.65 -6.5 -42.64 0 -12.77 34.93c-6.98,19.27 -13.25,34.93 -13.73,34.93 -0.72,0 -0.48,-13.01 0.48,-28.91 2.65,-41.67 3.37,-40.95 -39.26,-40.95l-33.01 0 -18.06 49.62zm-81.67 -0.96c-9.88,26.98 -18.31,50.35 -19.03,51.79 -0.72,2.41 5.06,3.13 24.09,3.13l25.29 0 18.55 -50.1c10.12,-27.46 18.31,-50.59 18.31,-51.79 0,-0.97 -11.08,-1.69 -24.81,-1.69l-24.57 0 -17.83 48.66zm-120.45 0.24c-9.88,26.74 -18.31,50.11 -19.03,51.79 -0.72,2.41 9.4,2.89 48.9,2.41l49.87 -0.72 4.34 -10.84c9.15,-23.61 10.84,-21.68 -16.63,-21.68 -13.49,0 -24.33,-0.97 -24.33,-2.17 0,-1.21 3.38,-11.32 7.47,-22.4 4.1,-11.08 9.4,-25.78 11.81,-32.77l4.57 -12.52 -49.14 0 -17.83 48.9zm-124.06 -32.76c-3.37,9.15 -12.05,32.28 -19.27,52.03l-13.01 35.41 54.44 -0.48 54.2 -0.72 4.34 -12.77 4.34 -12.52 -59.75 0 1.93 -5.55c1.93,-5.05 3.37,-5.29 30.11,-6.02l28.19 -0.72 3.13 -7.71c8.19,-19.75 9.88,-18.31 -20.96,-19.03 -27.46,-0.72 -27.46,-0.72 -25.53,-6.26 1.92,-5.06 3.13,-5.3 31.07,-5.3l29.15 0 3.13 -7.95c1.93,-4.1 4.1,-10.12 4.82,-13.25l1.69 -5.3 -105.76 0 -6.26 16.14 0 0zm-165.26 32.52c-9.63,26.98 -18.31,50.35 -18.79,51.79 -0.72,2.41 4.82,3.13 23.13,3.13l24.09 0 5.54 -16.38 5.78 -16.14 13.97 -0.72 13.73 -0.72 -6.02 16.14c-3.37,8.67 -6.02,16.38 -6.02,16.86 0,0.48 10.84,0.96 24.09,0.96 13.25,0 24.09,-0.48 24.09,-0.72 0,-0.48 8.19,-22.88 18.07,-49.87 9.87,-26.98 18.06,-49.86 18.06,-51.07 0,-0.96 -10.6,-1.92 -23.61,-1.92l-23.36 0 -6.99 19.27 -6.74 19.27 -13.01 0c-7.23,0 -13.01,-0.96 -13.01,-1.93 0,-1.2 2.65,-8.91 6.02,-17.34 3.38,-8.43 6.03,-16.14 6.03,-17.35 0,-0.96 -10.6,-1.92 -23.61,-1.92l-23.61 0 -17.83 48.66zm-215.6 -4.82c-8.91,24.33 -17.59,47.7 -19.51,52.04l-3.14 7.7 51.56 0 17.82 -48.9c9.88,-26.74 18.31,-50.1 18.79,-51.79 0.97,-2.17 -4.81,-2.89 -24.09,-2.89l-25.29 0 -16.14 43.84zm-196.57 -37.34c-1.45,3.86 -9.4,25.06 -17.83,47.7 -8.43,22.4 -15.9,42.88 -16.86,45.29 -1.69,3.85 0,4.34 21.68,3.61l23.36 -0.72 11.81 -32.52c6.5,-17.83 12.53,-33.97 13.01,-35.9 2.89,-7.7 2.89,0.73 0.24,33.97l-2.89 35.65 41.43 0 23.85 -34.93c13.01,-19.27 24.09,-34.69 24.33,-34.2 0.48,0.48 -4.58,15.17 -11.08,33 -6.75,17.59 -12.05,33 -12.05,34.21 0,0.96 10.12,1.92 22.41,1.92l22.4 0 18.55 -50.1c10.12,-27.71 18.55,-51.07 18.55,-51.79 0,-0.97 -15.9,-1.69 -35.41,-1.69l-35.65 0 -18.8 28.42 -18.79 28.19 1.69 -24.33c2.17,-33.01 2.89,-32.28 -39.03,-32.28l-32.27 0 -2.65 6.5 0 0zm336.53 -6.02c-15.9,2.89 -39.51,13.97 -50.35,23.61 -14.45,12.52 -21.92,27.46 -22.16,43.84 0,12.29 0.72,14.46 8.19,22.16 11.81,12.05 25.29,15.9 54.2,15.66 36.62,-0.48 37.34,-0.72 43.85,-18.06l5.54 -14.7 -20.96 0.96c-18.79,1.21 -21.68,0.73 -27.46,-4.09 -9.88,-7.71 -9.16,-17.59 2.4,-28.91 14.22,-14.21 44.09,-18.79 54.69,-8.19 3.13,3.37 4.09,2.17 9.39,-9.4 9.88,-22.16 9.88,-22.64 1.21,-24.33 -10.6,-2.17 -44.57,-1.44 -58.54,1.45l0 0z"/>
   <rect class="fil1" transform="matrix(1.41609 -0 -0.00277178 0.00753579 307.594 1239.35)" width="849.14" height="3322.87"/>
  </g>
 </g>
</svg>
