<?xml version="1.0" encoding="UTF-8"?>
<!DOCTYPE svg PUBLIC "-//W3C//DTD SVG 1.0//EN" "http://www.w3.org/TR/2001/REC-SVG-20010904/DTD/svg10.dtd">
<!-- Creator: CorelDRAW -->
<svg xmlns="http://www.w3.org/2000/svg" xml:space="preserve" width="20mm" height="15mm" version="1.0" style="shape-rendering:geometricPrecision; text-rendering:geometricPrecision; image-rendering:optimizeQuality; fill-rule:evenodd; clip-rule:evenodd"
viewBox="0 0 2000 1500"
 xmlns:xlink="http://www.w3.org/1999/xlink"
 xmlns:xodm="http://www.corel.com/coreldraw/odm/2003">
 <defs>
  <style type="text/css">
   <![CDATA[
    .fil0 {fill:#FDE7E4}
    .fil1 {fill:black;fill-rule:nonzero}
    .fil2 {fill:#FF0659;fill-rule:nonzero}
   ]]>
  </style>
 </defs>
 <g id="Camada_x0020_1">
  <metadata id="CorelCorpID_0Corel-Layer"/>
  <rect class="fil0" x="-70.34" y="-43.58" width="2125.62" height="1594.22"/>
  <g id="_2424204101376">
   <path class="fil1" d="M1466.46 863.71c-1.47,7.83 -2.78,14.55 -2.9,14.91 -0.16,0.67 0.75,0.71 15.54,0.71l15.74 0 0.4 -2.1c1.11,-5.37 5.2,-26.75 5.2,-27.23 0,-0.36 -3.38,-0.48 -15.62,-0.48l-15.62 0 -2.74 14.19zm-267.42 -73.97c-0.31,1.04 -4.65,23.81 -4.65,24.37 0,0.28 1.31,0.44 3.98,0.44 3.46,0 4.09,0.12 4.77,0.79 0.43,0.44 0.79,1.15 0.79,1.59 0,0.44 -2.1,11.29 -4.65,24.13 -3.93,19.71 -4.65,23.96 -4.65,27.18 -0.04,3.5 0.04,3.94 1.07,5.49 0.8,1.23 1.75,1.99 3.38,2.74l2.27 1.07 15.5 0.12 15.5 0.12 2.31 -12.24c1.27,-6.72 2.3,-12.36 2.3,-12.56 -0.04,-0.16 -1.59,-0.28 -3.5,-0.28 -4.17,0 -5.44,-0.51 -5.6,-2.18 -0.08,-0.68 1.99,-11.85 4.53,-24.85 2.55,-12.99 4.69,-24.64 4.81,-25.87 0.48,-4.89 -1.39,-8.27 -5.33,-9.7 -1.66,-0.63 -3.85,-0.75 -17.25,-0.91 -14.7,-0.16 -15.38,-0.12 -15.58,0.55l0 0zm-230.41 -0.99c-9.1,2.39 -18.6,9.74 -23.69,18.32 -0.55,0.96 -0.87,1.28 -0.75,0.8 0.79,-2.82 1.79,-8.51 1.79,-10.38 0,-3.02 -1.2,-5.32 -3.38,-6.59 -2.47,-1.47 -6.32,-1.79 -21.07,-1.79l-12.76 0 -2.3 11.8c-1.27,6.52 -2.39,12.24 -2.51,12.72 -0.19,0.92 -0.15,0.92 3.74,0.92 4.57,0 5.68,0.47 5.68,2.46 0,1.03 -10.81,58.07 -11.36,60.02 -0.2,0.67 0.71,0.71 14.9,0.71 8.35,0 15.14,-0.12 15.14,-0.24 0,-0.15 1.56,-8.34 3.42,-18.2 3.62,-19.04 4.73,-23.21 7.44,-28.06 2.14,-3.82 6.79,-8.55 10.21,-10.45 4.97,-2.71 12.4,-4.18 17.89,-3.5 1.43,0.2 2.66,0.28 2.74,0.2 0.2,-0.2 5.6,-27.98 5.6,-28.86 0,-0.63 -0.43,-0.71 -3.85,-0.67 -2.51,0 -4.97,0.27 -6.88,0.79l0 0zm429.19 22.18c3.1,1.59 4.85,4.65 4.85,8.39 0,3.41 1.07,3.18 -12.96,3.18 -8.98,0 -12.48,-0.12 -12.48,-0.44 0,-1.04 2.7,-5.09 4.73,-7.16 4.61,-4.57 11.37,-6.28 15.86,-3.97l0 0zm-9.54 -23.41c-27.27,3.14 -46.59,26.95 -45.12,55.64 0.32,6.01 1.44,10.42 3.86,15.31 3.78,7.51 8.47,12.08 16.5,16.09 8.02,4.02 15.46,5.41 26.74,5.05 7.16,-0.24 10.66,-0.83 17.22,-3.06 6.47,-2.15 16.89,-7.55 16.53,-8.54 -0.08,-0.2 -1.83,-5.25 -3.86,-11.17l-3.73 -10.77 -3.98 2.1c-15.26,8.07 -27.9,8.98 -34.93,2.55 -2.39,-2.19 -3.7,-4.54 -4.3,-7.72 -0.75,-4.25 -3.85,-3.81 27.71,-3.81l27.58 0 0.44 -1.11c0.24,-0.6 0.91,-2.95 1.47,-5.25 0.99,-3.78 1.07,-4.81 1.03,-11.33 0,-6.08 -0.16,-7.63 -0.87,-10.29 -3.46,-12.56 -12.84,-20.67 -26.59,-23.1 -4.26,-0.75 -11.85,-1.03 -15.7,-0.59zm-92.33 0c-13.16,1.39 -24.37,6.64 -33.23,15.46 -9.78,9.82 -15.07,22.38 -15.07,35.89 0,21.34 13.88,36.89 35.97,40.3 5.89,0.88 17.73,0.6 23.18,-0.55 8.82,-1.95 17.41,-5.85 22.69,-10.42l0.92 -0.79 -3.86 -11.33c-2.15,-6.24 -3.97,-11.33 -4.05,-11.33 -0.12,0 -1.67,1 -3.5,2.19 -7.04,4.69 -14.03,6.99 -21.46,7.07 -6.92,0.04 -11.25,-1.59 -15.11,-5.76 -2.82,-3.02 -4.57,-7.75 -4.57,-12.32 0,-5.33 2.9,-12.6 6.68,-16.65 4.49,-4.89 9.38,-7.12 15.54,-7.12 4.29,0 6.08,0.52 7.91,2.19 1.39,1.27 1.47,1.43 1.39,3.73l-0.04 2.43 25.28 0 0.2 -0.92c1.39,-5.84 1.95,-9.93 1.79,-13.19 -0.12,-3.14 -0.32,-3.9 -1.51,-6.08 -2.43,-4.57 -7.36,-8.15 -14.31,-10.42 -6.08,-1.98 -17.97,-3.1 -24.84,-2.38l0 0zm-149.65 0c-4.17,0.52 -7.51,1.51 -11.73,3.58 -4.77,2.3 -8.06,4.73 -12.28,9.1 -2.02,2.06 -3.02,2.9 -2.86,2.34 1.19,-4.45 0.4,-8.58 -2.15,-10.77 -2.7,-2.3 -3.14,-2.38 -19.35,-2.54 -8.15,-0.12 -14.83,-0.08 -14.83,0.04 0,0.12 -1.07,5.72 -2.38,12.48 -1.31,6.75 -2.39,12.4 -2.39,12.56 0,0.12 1.79,0.24 3.98,0.24 3.46,0 4.09,0.12 4.77,0.79 0.43,0.44 0.79,1.23 0.79,1.75 0,0.56 -2.58,14.23 -5.76,30.41 -3.18,16.17 -5.76,29.61 -5.76,29.81 0,0.31 4.49,0.39 14.98,0.35l14.98 -0.12 4.02 -20.27c4.45,-22.37 4.49,-22.49 6.2,-26.27 3.7,-8.31 10.57,-14.67 17.37,-16.1 6.91,-1.43 11.17,1.32 11.21,7.12 0,1.59 -1.39,9.62 -3.82,21.86 -4.89,24.8 -4.77,24.13 -4.13,26.99 0.4,1.79 0.83,2.66 2.14,3.97 2.83,2.82 3.7,2.94 20.91,2.82l14.87 -0.12 2.3 -11.72c1.23,-6.44 2.27,-12.04 2.31,-12.44 0,-0.6 -0.44,-0.68 -3.7,-0.68 -4.33,0 -5.44,-0.51 -5.44,-2.46 0,-0.68 1.15,-7.24 2.58,-14.59 3.14,-16.33 3.38,-17.81 3.38,-23.21 0,-14.39 -7.51,-23.17 -21.47,-24.88 -3.69,-0.48 -4.88,-0.48 -8.74,-0.04l0 0zm-113.36 23.41c3.46,1.79 5.45,6.08 4.69,10.13l-0.28 1.44 -25.43 0 1.31 -2.51c2.54,-4.85 7.51,-8.82 12.32,-9.82 2.3,-0.47 5.64,-0.16 7.39,0.76zm-9.34 -23.41c-12.28,1.39 -22.81,6.6 -30.96,15.22 -6.8,7.2 -11.01,15.5 -13.36,26.27 -1.15,5.37 -1.27,17.21 -0.19,21.47 3.06,12.08 11.01,21.06 22.73,25.63 7.08,2.79 11.01,3.42 20.87,3.42 9.5,0 11.96,-0.36 19.35,-2.82 7.68,-2.54 17.45,-7.67 16.98,-8.9 -0.12,-0.32 -1.87,-5.33 -3.82,-11.13 -1.99,-5.81 -3.66,-10.62 -3.74,-10.69 -0.08,-0.08 -0.59,0.23 -1.23,0.67 -1.63,1.15 -7.83,4.17 -11.05,5.37 -6.52,2.46 -12.8,3.42 -17.41,2.7 -4.57,-0.76 -6.95,-1.87 -9.66,-4.57 -2.7,-2.7 -3.77,-5.17 -3.89,-8.75l-0.04 -2.02 27.82 -0.2 27.83 -0.2 0.91 -3.18c2.82,-9.94 2.78,-20.19 -0.16,-27.98 -3.14,-8.27 -10.06,-14.87 -19,-18.01 -5.72,-2.06 -15.42,-3.06 -21.98,-2.3l0 0zm-165.15 23.41c3.46,1.79 5.45,6.08 4.69,10.13l-0.27 1.44 -25.44 0 1.31 -2.51c2.54,-4.85 7.51,-8.82 12.32,-9.82 2.31,-0.47 5.65,-0.16 7.39,0.76zm-9.34 -23.41c-26.9,3.06 -45.47,24.96 -45.43,53.66 0.04,19.19 11.73,32.95 31.8,37.44 3.66,0.79 5.21,0.91 12.72,0.91 9.5,0 11.96,-0.36 19.36,-2.82 5.08,-1.71 9.3,-3.62 13.71,-6.2l3.42 -2.03 -3.82 -11.21 -3.81 -11.21 -4.42 2.31c-9.85,5.17 -18.6,7.39 -25.16,6.36 -4.73,-0.72 -7.11,-1.87 -9.85,-4.57 -2.71,-2.7 -3.78,-5.17 -3.9,-8.75l-0.04 -2.02 27.82 -0.2 27.79 -0.2 0.91 -3.18c1.75,-5.96 2.23,-9.86 1.99,-15.9 -0.4,-10.29 -3.26,-17.13 -9.58,-23.17 -4.65,-4.41 -10.81,-7.39 -17.89,-8.59 -4.17,-0.75 -12,-1.07 -15.62,-0.63l0 0zm-91.93 26.75c1.83,0.91 2.98,1.83 4.05,3.26 2.07,2.74 2.75,4.89 2.98,9.58 0.48,8.74 -2.5,16.37 -8.54,22.09 -9.38,8.87 -22.34,7.24 -25.8,-3.21 -1.11,-3.38 -0.99,-10.78 0.24,-14.75 1.51,-4.93 3.46,-8.19 7,-11.73 6.6,-6.63 13.63,-8.5 20.07,-5.24l0 0zm-51.87 -58.47c-0.44,1.87 -4.57,23.53 -4.57,24.05 0,0.39 0.91,0.51 3.89,0.51 4.89,0 5.49,0.32 5.37,3.06 -0.04,1.44 -16.65,88.44 -17.81,93.41l-0.19 0.91 28.14 0 0.67 -4.49 0.72 -4.49 3.02 3.06c3.38,3.42 6.68,5.33 11.84,6.8 2.7,0.79 3.98,0.91 10.06,0.91 5.88,-0.04 7.47,-0.16 10.13,-0.91 11.01,-2.98 20.04,-9.1 27.07,-18.45 8.11,-10.81 12,-24.92 10.85,-39.26 -1.15,-14.55 -7.47,-25.08 -18.04,-30.21 -7.91,-3.86 -17.81,-4.49 -26.51,-1.75 -4.06,1.27 -6.52,2.5 -9.82,4.85 -2.31,1.63 -2.55,1.71 -2.27,0.83 0.16,-0.51 1.43,-6.75 2.9,-13.87 2.99,-14.7 3.34,-18.48 1.87,-21.26 -0.91,-1.75 -2.66,-3.1 -4.89,-3.86 -0.95,-0.32 -6.44,-0.52 -16.81,-0.59l-15.38 -0.16 -0.24 0.91 0 0zm796.72 -19.51c-4.81,0.35 -10.53,1.51 -15.7,3.21 -7.31,2.39 -21.22,9.94 -20.75,11.21 0.32,0.76 14.63,23.81 15.19,24.41 0.4,0.43 0.83,0.32 2.34,-0.88 2.78,-2.1 6.8,-4.25 10.38,-5.52 8.07,-2.9 15.54,-1.23 18.4,4.09 0.79,1.51 0.91,2.19 0.75,4.41 -0.35,5.29 -3.57,8.95 -15.58,17.69 -8.78,6.4 -13.23,10.26 -16.41,14.23 -4.77,5.96 -6.88,10.93 -8.59,20.35 -0.55,3.1 -1.03,5.84 -1.03,6.08 0,0.32 4.65,0.44 16.41,0.44l16.38 0 0.88 -4.17c1.59,-7.91 3.45,-10.06 17.01,-19.68 16.65,-11.88 23.25,-19.79 26.11,-31.24 1.15,-4.73 1.23,-13.63 0.16,-17.85 -4.65,-17.88 -22.7,-28.38 -45.95,-26.79l0 0.01zm201.72 -45.51c-3.58,0.75 -7.99,2.82 -10.14,4.76 -0.91,0.84 -2.15,2.43 -2.7,3.5 -0.96,1.79 -1.07,2.47 -1.07,5.81 0.03,3.06 0.19,4.17 0.91,5.72 1.31,2.86 3.3,5.13 6.36,7.11 3.54,2.35 4.81,2.87 10.37,4.02 5.65,1.19 6.68,1.59 8.11,2.94 2.98,2.82 -0.24,6.84 -7.27,9.02 -1.51,0.48 -4.18,0.76 -8.63,0.88 -3.58,0.12 -6.48,0.31 -6.48,0.39 0,0.08 1.2,2.51 2.71,5.37l2.66 5.17 4.01 -0.24c9.74,-0.56 19,-3.46 26.4,-8.23 3.25,-2.15 8.54,-7.47 10.25,-10.33 2.15,-3.7 2.98,-6.48 3.18,-10.93 0.2,-4.85 -0.32,-7.64 -2.11,-11.21 -3.49,-6.92 -10.97,-11.97 -20.43,-13.76 -4.13,-0.79 -12.36,-0.79 -16.13,0l0 0.01zm-328.91 -55.61c0,0.4 -4.29,22.85 -4.65,24.25 -0.2,0.91 -0.16,0.91 3.74,0.91 4.69,0 5.68,0.48 5.68,2.66 0,0.8 -2.06,11.89 -4.57,24.65 -2.5,12.75 -4.69,24.12 -4.81,25.31 -0.51,4.3 1.47,7.99 5.21,9.66 1.43,0.64 3.18,0.72 17.21,0.84 8.54,0.08 15.58,0.08 15.58,0 0,-0.08 1.07,-5.69 2.38,-12.44 1.32,-6.8 2.39,-12.36 2.39,-12.44 0,-0.04 -1.71,-0.08 -3.78,-0.08 -3.53,0 -3.89,-0.08 -4.81,-1 -0.75,-0.75 -0.95,-1.27 -0.79,-2.1 4.77,-23.85 9.38,-49.09 9.38,-51.28 -0.04,-4.49 -1.91,-7.23 -5.76,-8.46 -1.91,-0.6 -32.4,-1.04 -32.4,-0.48l0 0zm-520.04 -0.6c-0.32,1.04 -4.61,23.69 -4.61,24.33 0,0.55 0.59,0.63 4.09,0.63 2.66,0 4.25,0.16 4.57,0.48 0.8,0.8 0.56,2.74 -2.11,16.46 -1.39,7.27 -2.74,14.7 -2.98,16.53 -1.63,13.2 1.63,22.58 9.7,27.82 6.52,4.22 16.74,5.01 26.27,2.03 6.21,-1.95 11.49,-5.37 16.86,-10.81 1.87,-1.87 3.26,-3.06 3.1,-2.66 -0.6,1.55 -0.76,5.24 -0.32,6.91 0.6,2.19 2.54,4.37 4.81,5.41 1.71,0.79 2.58,0.83 16.77,0.95l14.95 0.12 0.43 -2.11c1.2,-6.08 4.42,-22.89 4.42,-23.09 0,-0.16 -1.87,-0.28 -4.1,-0.28 -5.05,0 -5.68,-0.39 -5.32,-3.45 0.08,-1.08 2.7,-14.75 5.8,-30.49 3.1,-15.7 5.6,-28.7 5.6,-28.9 0,-0.19 -6.44,-0.31 -14.98,-0.27l-14.99 0.12 -4.05 20.27c-4.57,23.09 -4.25,21.66 -5.92,25.71 -2.82,6.72 -7.95,12.52 -13.52,15.27 -2.66,1.31 -3.45,1.51 -6.48,1.66 -2.82,0.12 -3.69,0 -4.84,-0.63 -1.99,-1.03 -3.18,-3.58 -3.18,-6.64 0,-1.51 1.59,-10.33 4.01,-22.69 4.45,-22.3 4.81,-25.32 3.3,-28.14 -1.15,-2.19 -3.14,-3.66 -5.92,-4.42 -3.14,-0.79 -31.12,-0.91 -31.36,-0.12l0 0zm797.79 22.14c3.14,1.59 4.57,4.22 4.61,8.27 0.04,1.55 -0.08,2.94 -0.2,3.06 -0.11,0.16 -5.92,0.2 -12.83,0.16l-12.6 -0.12 1.11 -2.19c1.47,-2.86 5.13,-6.71 7.75,-8.14 4.13,-2.27 8.98,-2.67 12.16,-1.04l0 0zm-10.25 -23.41c-19.04,2.39 -34.82,15.15 -41.26,33.43 -2.42,6.91 -3.06,10.85 -3.06,19.43 0,6.84 0.12,8.15 0.91,11.05 3.86,14.11 14.67,23.69 30.69,27.15 3.58,0.8 5.36,0.92 12.52,0.95 9.38,0 12.8,-0.51 20.59,-3.25 6.36,-2.19 15.78,-7.12 15.78,-8.23 0,-0.4 -6.04,-18.25 -7.12,-20.99l-0.39 -1.07 -3.5 1.99c-10.61,5.96 -21.94,8.26 -29.34,6 -6.2,-1.87 -9.85,-6.16 -10.41,-12.2l-0.24 -2.59 55.69 0 0.63 -1.91c1.99,-6 2.43,-8.86 2.39,-15.77 -0.04,-7.99 -0.64,-10.9 -3.58,-16.86 -1.55,-3.1 -2.46,-4.37 -5.29,-7.19 -4.96,-5.01 -10.53,-7.83 -18.36,-9.34 -4.09,-0.76 -12.68,-1.08 -16.65,-0.6l0 0zm-91.62 -0.16c-17.84,1.87 -29.33,9.26 -32.95,21.23 -1.03,3.3 -1.23,9.89 -0.48,13.51 0.92,4.29 3.3,8.86 6.13,11.81 4.41,4.49 8.42,6.75 19.27,10.85 7.44,2.82 9.34,3.85 10.38,5.6 2.34,4.02 -1.67,7.12 -8.51,6.6 -7.27,-0.6 -14.74,-3.86 -21.22,-9.3 -1.71,-1.39 -3.14,-2.51 -3.18,-2.43 -2.11,2.87 -12.64,18.41 -12.84,18.8 -0.68,1.87 9.34,8.79 17.29,11.89 10.41,4.13 24.04,5.01 34.9,2.22 10.81,-2.78 19.31,-9.3 23.01,-17.68 1.27,-2.83 2.19,-7.52 2.19,-11.01 -0.04,-6.92 -2.23,-12.13 -7.16,-16.74 -4.37,-4.09 -9.78,-6.91 -20.47,-10.65 -2.62,-0.91 -5.4,-1.99 -6.2,-2.38 -4.05,-2.03 -5.13,-5.21 -2.62,-7.71 1.67,-1.67 4.01,-2.31 7.83,-2.11 5.4,0.28 7.79,2.26 7.31,6.16l-0.24 2.11 25.36 0 0.92 -4.81c1.66,-8.63 0.75,-12.88 -3.74,-17.25 -3.7,-3.62 -10.89,-6.68 -18.6,-7.95 -3.7,-0.6 -13.44,-1.08 -16.38,-0.76l0 0zm-87.4 0.16c-9.14,1.07 -17.37,4.14 -22.97,8.55 -9.35,7.35 -12.21,21.1 -6.68,32.23 3.5,7.16 10.05,11.77 23.65,16.7 6.95,2.5 8.46,3.29 9.85,5.32 1.87,2.66 0.08,5.53 -3.93,6.36 -7.08,1.47 -17.69,-2.23 -25.8,-9.02 -2.34,-1.99 -3.18,-2.47 -3.41,-2.07 -0.16,0.32 -3.18,4.65 -6.68,9.7l-6.36 9.14 1.07 1.11c1.67,1.79 6.32,5.13 9.82,7.12 4.29,2.46 9.66,4.53 14.82,5.72 5.21,1.23 15.07,1.71 20.43,1 15.35,-2.03 26.67,-9.94 30.37,-21.23 0.96,-2.86 1.11,-3.93 1.11,-8.43 0.04,-5.52 -0.35,-7.31 -2.46,-11.52 -1.19,-2.43 -5.05,-6.48 -7.95,-8.39 -3.46,-2.3 -8.58,-4.69 -15.66,-7.27 -7.75,-2.78 -8.55,-3.18 -10.21,-4.81 -2.59,-2.58 -0.96,-6.44 3.18,-7.55 2.54,-0.72 7.35,-0.32 9.38,0.71 2.22,1.16 3.02,2.67 2.66,5.25l-0.28 1.99 25.44 0 0.91 -4.97c1.11,-6.12 1,-9.42 -0.51,-12.68 -2.71,-5.88 -11.05,-10.61 -21.87,-12.36 -4.65,-0.76 -13.83,-1.08 -17.92,-0.6l0 0zm-335.7 -0.59c-7.35,1.51 -13.36,4.84 -19.68,10.97l-3.18 3.1 0 -3.26c0,-5.21 -2.06,-8.03 -6.59,-8.99 -2.47,-0.55 -30.17,-0.59 -30.17,-0.08 0,0.36 -4.21,22.58 -4.57,24.17 -0.2,0.91 -0.16,0.91 3.93,0.91 4.73,0 5.41,0.32 5.41,2.67 0,1.07 -10.38,55.36 -11.41,59.62l-0.2 0.91 30.13 0 3.9 -19.87c3.97,-20.15 5.28,-25.24 7.83,-30.29 4.05,-8.07 9.26,-12.52 15.1,-12.96 5.25,-0.35 7.11,1.2 7.11,6.05 0,1.9 -1.59,10.81 -5.16,29.21 -2.87,14.55 -5.29,26.79 -5.41,27.15 -0.2,0.67 0.68,0.71 14.87,0.71l15.06 0 4.05 -20.19c4.3,-21.5 5.05,-24.44 7.79,-30.09 4.1,-8.34 9.82,-12.92 16.26,-12.92 4.53,0 6.52,2.43 6.04,7.28 -0.12,1.27 -2.1,11.8 -4.41,23.45 -2.3,11.68 -4.17,22.14 -4.17,23.33 0,2.74 1.03,5.05 2.94,6.64 2.66,2.18 3.1,2.22 19.79,2.38l15.34 0.16 0.44 -2.11c0.8,-3.73 4.41,-22.73 4.41,-23.05 0,-0.16 -1.9,-0.36 -4.25,-0.4 -4.13,-0.12 -4.29,-0.15 -4.77,-1.11 -0.4,-0.87 -0.04,-3.26 2.31,-15.7 1.51,-8.11 3.02,-16.45 3.34,-18.56 2.3,-15.22 -2.15,-24.76 -13.24,-28.46 -2.74,-0.91 -3.7,-1.03 -9.22,-1.03 -5.53,-0.04 -6.56,0.08 -10.06,1.07 -7.31,2.03 -13.47,5.49 -18.6,10.49l-3.06 2.95 -0.48 -1.52c-2.02,-6.27 -7.71,-11.12 -14.94,-12.63 -3.34,-0.72 -8.98,-0.72 -12.48,0l0 0zm-111.25 22.45c2.42,0.68 4.05,2.07 5.24,4.33 0.88,1.79 1.08,2.71 1.08,5.09l0 2.9 -12.72 0c-9.18,0 -12.72,-0.12 -12.72,-0.43 0,-0.92 2.46,-4.77 4.37,-6.84 3.86,-4.25 10.06,-6.36 14.75,-5.05l0 0zm-10.38 -22.45c-10.77,1.7 -19.63,6.2 -27.26,13.87 -7.59,7.55 -12.09,16.17 -14.51,27.66 -1.27,6.08 -1.31,16.22 -0.04,21.23 2.9,11.6 11.01,20.86 22.1,25.27 12.52,5.01 27.78,5.25 41.49,0.6 7,-2.38 16.7,-7.55 16.26,-8.66 -0.08,-0.28 -1.75,-5.05 -3.62,-10.62 -1.9,-5.6 -3.61,-10.37 -3.77,-10.65 -0.2,-0.36 -1.15,0 -3.42,1.31 -3.86,2.19 -8.86,4.3 -13.31,5.65 -4.18,1.23 -11.45,1.67 -14.75,0.91 -7.12,-1.67 -11.33,-6.12 -11.81,-12.36l-0.19 -2.74 55.68 0 0.88 -3.22c1.82,-6.8 2.1,-8.83 2.1,-14.47 0,-3.58 -0.24,-6.56 -0.63,-8.39 -3.3,-14.78 -13.6,-23.53 -30.09,-25.55 -4.45,-0.56 -10.93,-0.48 -15.11,0.16zm-216.38 25.43c9.26,2.75 11.97,16.3 5.65,28.54 -2.31,4.53 -6.88,9.1 -11.17,11.21 -7.83,3.86 -15.86,1.39 -19.2,-5.84 -1.11,-2.39 -1.15,-2.79 -1.15,-8.07 0,-6.28 0.67,-9.26 3.26,-14.19 4.65,-8.94 14.58,-14.03 22.61,-11.65l0 0zm-11.76 -25.83c-0.32,0.08 -1.95,0.36 -3.58,0.59 -9.42,1.55 -19.44,6.96 -26.35,14.27 -11.85,12.56 -17.09,31.28 -13.95,49.61 2.18,12.72 10.01,22.37 21.22,26.11 5.96,1.99 14.75,2.35 20.47,0.84 3.54,-0.96 9.22,-3.9 12.2,-6.32l2.59 -2.15 -0.52 1.83c-0.52,1.83 -7.71,38.51 -7.71,39.39 0,0.31 4.33,0.39 14.98,0.35l14.99 -0.12 8.98 -46.5c4.97,-25.6 9.14,-47.02 9.3,-47.62 0.16,-0.63 0.76,-1.59 1.31,-2.1 0.96,-0.88 1.36,-0.96 5.29,-0.96l4.25 0 2.27 -11.64c1.23,-6.36 2.34,-12.12 2.46,-12.72l0.24 -1.11 -16.06 0.12 -16.01 0.12 -2.31 1.15c-2.46,1.19 -4.41,3.34 -4.85,5.44 -0.16,0.64 -0.32,1.16 -0.36,1.16 -0.04,0 -1.31,-1.24 -2.82,-2.71 -4.93,-4.85 -10.53,-6.79 -19.87,-7.03 -3.06,-0.08 -5.84,-0.08 -6.16,0l0 0zm533.95 27.38c8.11,3.98 9.74,17.21 3.54,28.46 -2.06,3.74 -7.11,8.63 -10.73,10.42 -10.02,5 -18.56,0.75 -20.43,-10.14 -2.11,-12.64 6,-26.23 17.57,-29.49 3.22,-0.88 7.31,-0.6 10.05,0.75zm10.62 -56.91c-0.84,4.17 -4.41,22.85 -4.41,23.13 0,0.12 1.78,0.24 3.97,0.24 6.04,0 6.28,0.4 4.61,8.58 -0.56,2.63 -1.07,5.37 -1.23,6.16l-0.24 1.47 -2.19 -2.3c-6.2,-6.52 -19.55,-8.83 -32.07,-5.57 -7.95,2.11 -14.99,6.24 -21.39,12.68 -7.83,7.83 -12.4,16.5 -14.94,28.26 -0.56,2.67 -0.72,5.09 -0.72,11.73 0.04,9.02 0.48,12.08 2.79,18.08 4.17,10.93 12.83,17.93 24.6,19.92 4.05,0.67 12.8,0.23 16.53,-0.84 6.05,-1.71 12.21,-5.6 16.26,-10.25l1.99 -2.27 -0.04 3.18c-0.08,2.58 0.08,3.5 0.71,4.57 0.92,1.63 2.83,3.02 4.89,3.58 1.23,0.36 28.26,0.6 28.26,0.28 0,-0.08 1.08,-5.49 2.39,-12.01 1.31,-6.51 2.38,-12.12 2.38,-12.4 0,-0.39 -0.87,-0.51 -3.34,-0.51 -4.85,0 -6.2,-0.64 -6.2,-2.91 0,-0.63 3.58,-19.63 7.95,-42.25 5.09,-26.39 7.95,-42.01 7.95,-43.6 0,-4.21 -1.99,-6.99 -5.92,-8.3 -0.95,-0.32 -6.44,-0.52 -16.81,-0.6l-15.35 -0.16 -0.43 2.11 0 0zm67.92 -7.6c-9.26,1.16 -15.89,4.46 -18.28,9.11 -1.11,2.14 -1.07,6 0.08,9.02 1.03,2.82 3.97,5.88 7.08,7.39 4.05,1.99 7.94,2.74 14.11,2.74 10.65,0.04 19.03,-2.54 23.6,-7.31 2.27,-2.3 2.99,-4.41 2.75,-7.79 -0.44,-6.16 -4.73,-10.41 -12.56,-12.44 -3.58,-0.95 -12.13,-1.31 -16.78,-0.72l0 0z"/>
   <path class="fil2" d="M498.83 539.34c-20.27,2.74 -38.68,8.67 -60.02,19.28 -32.99,16.49 -64.87,40.62 -100.4,76.07 -25,24.96 -46.78,50.16 -69.96,81.09 -11.44,15.22 -25.99,36.13 -25.99,37.28 0,1.75 21.54,31.99 35.57,49.96 42.61,54.61 87.05,98.01 129.38,126.35 20.19,13.52 42.25,24.57 61.01,30.65 12.52,4.05 30.05,7.55 37.8,7.55 1.15,0 2.15,0.16 2.15,0.4 0,0.24 2.7,0.39 7.35,0.39 4.65,0 7.35,-0.15 7.35,-0.39 0,-0.24 0.84,-0.4 1.83,-0.4 5.17,0 16.89,-2.38 25.2,-5.13 35.81,-11.88 62.72,-41.77 70.91,-78.77 1.71,-7.8 2.34,-14.11 2.34,-23.22 0,-18.08 -3.46,-32.71 -11.4,-48.49 -5.49,-10.85 -11.49,-19.12 -20.08,-27.62 -12.28,-12.24 -25.67,-20.51 -41.77,-25.88 -8.35,-2.74 -19.16,-4.96 -25.24,-5.16 -1.15,-0.04 -1.51,-0.12 -0.79,-0.2 0.67,-0.08 2.9,-0.36 4.96,-0.6 29.22,-3.26 57.36,-19.95 74.57,-44.28 19.95,-28.18 25.28,-64.35 14.23,-96.98 -3.9,-11.56 -10.18,-23.05 -17.89,-32.79 -3.69,-4.65 -12.68,-13.55 -17.25,-17.05 -15.74,-12.12 -32.39,-19.24 -51.71,-22.06 -5.56,-0.83 -26.03,-0.83 -32.15,0l0 0z"/>
  </g>
 </g>
</svg>
