<?xml version="1.0" encoding="UTF-8"?>
<!DOCTYPE svg PUBLIC "-//W3C//DTD SVG 1.0//EN" "http://www.w3.org/TR/2001/REC-SVG-20010904/DTD/svg10.dtd">
<!-- Creator: CorelDRAW -->
<svg xmlns="http://www.w3.org/2000/svg" xml:space="preserve" width="20mm" height="15mm" version="1.0" style="shape-rendering:geometricPrecision; text-rendering:geometricPrecision; image-rendering:optimizeQuality; fill-rule:evenodd; clip-rule:evenodd"
viewBox="0 0 2000 1500"
 xmlns:xlink="http://www.w3.org/1999/xlink"
 xmlns:xodm="http://www.corel.com/coreldraw/odm/2003">
 <defs>
  <style type="text/css">
   <![CDATA[
    .fil0 {fill:#70967F}
    .fil1 {fill:#FEFEFE;fill-rule:nonzero}
   ]]>
  </style>
 </defs>
 <g id="Camada_x0020_1">
  <metadata id="CorelCorpID_0Corel-Layer"/>
  <polygon class="fil0" points="-7.53,3.53 1992.47,3.53 1992.47,1503.53 -7.53,1503.53 "/>
  <path class="fil1" d="M1388.89 961.85c-0.45,1.16 -0.58,15.27 -0.45,31.25l0.45 29.24 19.97 -0.13c23.38,0 26.12,-0.58 32.82,-6.57 7.68,-6.71 9.28,-10.83 9.28,-24.4 0,-13.86 -2.31,-18.69 -12.28,-25.7 -5.56,-3.82 -6.57,-4.14 -27.4,-4.85 -17.99,-0.71 -21.68,-0.57 -22.39,1.16zm256.16 1.29c-14.73,7.42 -21.12,17.52 -26.98,43.22 -1.99,8.43 -2.14,37.68 -0.13,38.82 0.84,0.45 1.42,3.43 1.42,6.43 0,2.99 0.71,5.99 1.41,6.4 0.84,0.45 1.42,2.16 1.42,3.6 0,7.14 14.7,25.11 24.15,29.68 3.54,1.55 8.69,2.26 18.53,2.13 12.27,0 14.44,-0.45 20.7,-3.99 3.99,-2.15 8.56,-5.28 10.27,-7.01 4.41,-4.13 13.41,-21.52 13.41,-25.83 0,-1.86 0.71,-3.86 1.42,-4.27 0.86,-0.58 1.43,-10.68 1.43,-25.69 0,-15 -0.57,-25.1 -1.43,-25.68 -0.71,-0.45 -1.42,-2.44 -1.42,-4.44 0,-1.86 -0.58,-4.57 -1.29,-5.98 -0.7,-1.29 -2.25,-4.72 -3.54,-7.42 -3.15,-7.28 -12.73,-16.69 -21.29,-20.68 -10.71,-5.15 -27.11,-4.89 -38.08,0.71l0 0zm-955.75 -1.29c-6.97,3.15 -18.81,14.41 -21.69,20.68 -0.98,2.31 -2.4,5.27 -3.11,6.56 -0.71,1.44 -1.29,4.01 -1.29,5.86 0,1.86 -0.7,4.01 -1.73,4.97 -1.29,1.29 -1.7,9.14 -1.7,27.43 0,18.28 0.41,26.13 1.7,27.38 1.03,1.02 1.73,2.87 1.73,4.3 0,1.42 0.58,3.71 1.29,5.15 0.71,1.29 2.13,4.25 3.11,6.69 4.29,9.85 20.14,22.1 28.57,22.1 1.42,0 4.25,0.73 6.27,1.73 2.7,1.16 4.99,1.16 9.26,0 3.15,-1 8.3,-2.44 11.58,-3.41 6.12,-1.73 17.83,-11.15 19.97,-15.98 0.71,-1.73 2.45,-5.01 3.99,-7.27 2.58,-4.44 3.42,-7.01 6.14,-20.72 2.7,-13.27 1.45,-48.64 -1.83,-50.81 -0.75,-0.41 -1.29,-2.27 -1.29,-4.14 0,-1.84 -0.57,-3.86 -1.45,-4.25 -0.73,-0.45 -1.44,-2.16 -1.44,-3.73 0,-1.55 -0.97,-3.15 -2.12,-3.58 -1.16,-0.54 -2.13,-1.69 -2.13,-2.72 0,-2.96 -9.28,-10.96 -17.58,-15.25 -6.25,-3.43 -9.14,-3.86 -18.82,-3.86 -8.14,0.17 -13.12,0.87 -17.43,2.87l0 0zm-386.57 0.58c-11.84,5.27 -26.28,23.38 -26.28,32.8 0,1.58 -0.71,3.73 -1.69,4.69 -2,2 -2.3,52.1 -0.17,54.81 0.73,1.02 2.31,4.73 3.28,8.29 6,19.13 22.86,31.68 42.12,31.55 13.84,0 21.97,-3.28 30.97,-12.56 5.71,-5.99 8.11,-10.15 13.97,-24 4.44,-10.26 4.14,-58.79 -0.13,-61.5 -0.71,-0.41 -1.29,-2.27 -1.29,-3.99 0,-6.39 -9.4,-20.55 -17.11,-25.69 -9.29,-6.14 -15.41,-8 -26.28,-7.85 -7.42,0 -12.12,0.87 -17.39,3.45l0 0zm944.56 27.37c-0.97,0.32 -1.83,1.86 -1.83,3.43 0,1.59 -0.58,3.86 -1.28,5.28 -2.43,4.86 -9.14,19.56 -10.15,22.41 -0.58,1.59 -1.69,4.44 -2.57,6.43 -3.11,7.54 -3.11,8.56 0.17,9.27 1.69,0.45 10.83,0.58 20.23,0.45 16.56,-0.45 17.13,-0.58 17.56,-3.73 0.28,-1.74 -0.13,-3.15 -1,-3.15 -0.84,0 -1.57,-0.99 -1.57,-2.13 0,-2.27 -2.57,-8.26 -10.81,-25.97 -2.75,-5.58 -4.89,-11 -4.89,-11.71 0,-1.72 -0.97,-1.87 -3.86,-0.58l0 0zm-776.04 66.08l0 37.09 36.7 0c34.66,0 36.95,-0.13 42.06,-2.97 6.58,-3.59 9.46,-6.56 13.32,-13.4 2.4,-4.31 2.83,-7.72 2.83,-20.72 0,-9.54 -0.58,-15.7 -1.42,-15.7 -0.71,0 -1.41,-0.99 -1.41,-2.14 0,-3.86 -9.31,-12.55 -16.86,-15.98 -7.14,-3.13 -9.01,-3.28 -41.39,-3.28l-33.83 0 0 37.1 0 0zm0.58 -122.43c-0.45,3.99 0.45,67.5 0.84,67.93 0.31,0.28 13.57,0.41 29.55,0.28 33.42,-0.13 42.83,-1.87 50.37,-9.29 8.57,-8.42 10.57,-29.36 4,-43.22 -4.27,-9 -6.41,-11.71 -9.41,-11.71 -0.99,0 -2.44,-0.43 -2.99,-1.01 -0.42,-0.57 -3.28,-1.86 -6.3,-2.85 -7.4,-2.57 -65.78,-2.7 -66.06,-0.13l0 0zm557.41 -534.98c0.73,0.71 3.71,1.29 6.56,1.29 3.01,0 5.73,0.56 6.29,1.28 0.43,0.71 2.85,1.85 5.27,2.28 8.43,1.86 16.13,5.98 21.56,11.41l5.28 5.28 0 35.54 -6.14 6.13c-6.41,6.43 -13.98,10.85 -18.25,10.85 -1.44,0 -3,0.58 -3.43,1.42 -0.43,0.73 -3.29,1.44 -6.44,1.44 -6.41,0 -7.12,1.28 -7.12,12.27 0,6.13 0.56,7.99 2.57,8.7 1.27,0.43 3.57,1.87 4.98,3.01 2.44,2.27 4.14,3.28 12.57,7.98 10.98,6.13 39.81,38.67 39.81,44.95 0,0.73 0.43,1.57 1.14,1.87 1.58,0.7 7.42,17.69 9.28,26.83 3,15.27 1.01,56.22 -3.13,60.36 -0.86,0.85 -1.58,2.85 -1.58,4.41 0,3.01 -2.43,11.43 -4.42,15.43 -0.71,1.41 -1.29,4.13 -1.29,6.13 0,1.99 -0.56,3.56 -1.42,3.56 -0.72,0 -1.43,1.29 -1.43,2.72 0,1.57 -0.56,3.29 -1.42,3.71 -0.73,0.43 -1.44,2 -1.44,3.29 0,2.7 -20.12,43.52 -21.68,44.22 -0.71,0.3 -1.14,1.44 -1.14,2.43 0,1.01 -1.43,4.72 -3,8.15 -1.72,3.28 -3.71,7.7 -4.57,9.69 -0.71,2 -1.86,4.72 -2.57,6.01 -0.71,1.41 -1.29,3.71 -1.29,4.98 0,1.43 -0.99,5.14 -2.14,8.27 -1.14,3.16 -2,7.85 -2.13,10.58 0,5.27 3.84,23.83 5.84,27.54 0.72,1.41 1.28,3.41 1.28,4.57 0,1.13 1.29,4.41 2.73,7.55 1.56,3 4.69,9.71 7.12,14.99 2.44,5.13 6.56,12.42 9.43,15.98 2.71,3.56 4.98,7.85 4.98,9.28 0,1.57 0.73,3.29 1.44,3.71 2.14,1.27 1.71,7.43 -0.71,12.12 -1.44,2.86 -4.01,4.72 -7.85,5.86 -3.15,1.01 -5.71,2.27 -5.71,3 0,0.56 -32.68,1.14 -72.79,1.14 -65.51,0 -73.21,-0.28 -78.05,-2.42 -9.42,-4.29 -10.43,-5.71 -10.43,-15.28 0,-8.55 3.86,-18.55 12.85,-32.96 1.44,-2.43 2.7,-5.43 2.7,-6.85 0.15,-1.28 0.86,-2.44 1.59,-2.44 0.86,0 1.42,-1.56 1.42,-3.56 0,-1.99 0.7,-3.56 1.43,-3.56 0.86,0 1.42,-1.87 1.42,-4.14 0,-2.42 0.71,-4.72 1.43,-5.15 0.86,-0.43 1.42,-2.42 1.42,-4.27 0,-1.86 0.73,-3.86 1.44,-4.29 0.85,-0.42 1.41,-5.55 1.41,-11.41 0,-5.85 -0.56,-11 -1.41,-11.43 -0.71,-0.43 -1.44,-3.71 -1.44,-7.12 0,-3.43 -0.56,-6.71 -1.42,-7.14 -0.72,-0.43 -1.43,-2.7 -1.43,-5 0,-2.27 -0.56,-4.57 -1.42,-5 -0.73,-0.42 -1.43,-1.99 -1.43,-3.41 0,-2.14 -20.55,-44.67 -23.83,-48.94 -0.71,-1.01 -2.15,-4.44 -3.14,-7.57 -1.15,-3.14 -3.15,-8.28 -4.57,-11.29 -1.56,-3.13 -2.72,-6.56 -2.72,-7.55 0,-1 -0.56,-3 -1.28,-4.43 -0.71,-1.27 -2,-5.28 -2.99,-8.84 -0.86,-3.56 -2.57,-9.72 -3.58,-13.56 -2.98,-10.55 -3.84,-18.27 -3.99,-35.67 -0.15,-18.42 0.86,-24.98 5.71,-38.54 7.14,-20.4 18.55,-36.96 34.53,-50.38 4.44,-3.71 8.28,-7.13 8.43,-7.85 0.28,-0.56 1.14,-0.99 1.99,-0.99 0.86,0 3.56,-1.44 5.99,-3.28 2.44,-1.87 6.58,-4.29 9.14,-5.43l4.56 -1.99 0 -23.55 -4.14 0c-2.42,0 -4.69,-0.71 -5.12,-1.42 -0.43,-0.86 -2.3,-1.44 -4.01,-1.59 -1.7,0 -4.98,-1.28 -7.42,-2.85 -2.28,-1.42 -5.56,-3.28 -7.13,-3.99 -1.56,-0.71 -4.99,-3.43 -7.42,-5.85l-4.71 -4.57 0 -34.81 5.42 -5c2.85,-2.71 7.27,-5.86 9.57,-6.84 2.42,-1.01 5.42,-2.45 6.71,-3.16 1.42,-0.7 3.71,-1.28 5.13,-1.28 1.43,0 3.86,-0.99 5.42,-2.13 1.42,-1.15 5,-2.14 7.85,-2.14 2.71,0 5.56,-0.58 6.42,-1.44 2.72,-2.7 70.93,-2.57 74.06,0.15l0 0zm-489.48 517.71c3.13,0.84 7.7,1.85 9.99,2.28 5.13,0.71 7.85,1.72 16.56,5.99 10.12,4.86 16.69,11.13 21.26,20.26 3.86,7.42 4.28,9.72 4.28,21.28 0,15.98 -3,22.82 -14.99,34.1 -7.7,7.27 -9.26,11.56 -4.29,11.56 1.16,0 2.15,0.43 2.15,0.99 0,0.73 2.29,2.72 5,4.57 2.7,1.86 6.13,4.42 7.57,5.71 3.56,3.15 10.27,15.27 10.27,18.7 0,1.41 0.71,3.13 1.42,3.56 1.71,1.14 1.86,18.42 0.15,21.83 -0.71,1.29 -2.15,5.28 -3.14,8.86 -3.58,11.99 -21.55,26.53 -37.68,30.82 -2.27,0.56 -30.24,1.14 -62.07,1.14l-57.81 0.15 -0.43 -94.76c-0.13,-68.79 0.15,-95.34 1.29,-96.62 1.29,-1.57 10.55,-2 48.24,-2 28.12,0 48.8,0.73 52.23,1.58l0 0zm737.08 4.13c0,0.85 -0.56,2.57 -1.28,4 -0.71,1.29 -1.85,3.99 -2.71,5.99 -0.85,2 -3.13,7.14 -5.27,11.71 -2.86,5.99 -3.43,8.71 -2.43,10.7 0.86,1.42 2.56,5.13 3.84,8.28 1.44,3.13 4.29,9.57 6.44,14.27 7.85,16.98 9.97,22.11 9.97,23.27 0,0.7 1.72,4.7 4.01,8.98 2.13,4.27 5,10.71 6.57,14.12 1.41,3.58 4.56,10.57 6.84,15.7 13.83,29.98 16.84,36.83 16.99,38.82 0,1.01 1.28,3.71 2.85,6.14 1.42,2.29 3,5.27 3.56,6.43 0.43,1.14 1.44,3.28 2.14,4.55 0.71,1.43 1.29,3.86 1.29,5.42 0,1.57 0.71,2.86 1.42,2.86 0.86,0 1.43,1.58 1.43,3.58l0 3.71 -14.41 -0.43c-11.28,-0.3 -14.84,-0.86 -15.55,-2.57 -0.58,-1.14 -2.43,-5 -3.99,-8.56 -1.44,-3.58 -4.57,-10.28 -6.71,-14.99 -6.87,-14.98 -8.99,-19.84 -11.01,-24.69l-1.84 -4.57 -29.11 0.28c-24.13,0.43 -29.25,0.86 -30.26,2.57 -3.13,6.14 -8.41,17.85 -8.41,18.85 0,0.71 -1.29,3.84 -2.72,7.28 -1.42,3.28 -3.14,6.99 -3.56,8.13 -0.43,1.13 -1.44,3.13 -2.15,4.28 -0.71,1.14 -2.42,4.7 -3.99,7.85 -2.57,5.56 -2.85,5.71 -10.85,6.14 -8.56,0.43 -8.84,0.28 -6.84,-3.71 1.28,-2.43 3.84,-8.56 5.85,-13.86 0.71,-1.56 2.42,-5.7 3.99,-9.26 3.41,-7.7 7.27,-16.84 8.84,-20.7 0.58,-1.57 3.43,-7.85 6.28,-13.84 2.86,-6 5.15,-11.99 5.15,-13.12 0,-1.16 0.71,-2.58 1.42,-3.01 0.85,-0.42 1.43,-2.14 1.43,-3.71 0,-1.43 0.71,-2.72 1.42,-2.72 0.86,0 1.44,-0.99 1.44,-2.12 0,-1.16 0.55,-3.29 1.28,-4.72 0.71,-1.29 1.85,-3.99 2.71,-5.99 0.7,-1.99 3,-6.99 5.14,-11.13 2,-4.29 3.71,-8.28 3.71,-8.99 0,-0.72 1.42,-4.43 2.99,-8.14 1.71,-3.71 4,-8.99 5.14,-11.7 1.29,-2.72 3.41,-7.57 4.85,-10.57 1.57,-3.13 2.7,-6.56 2.7,-7.55 0,-1.01 0.73,-1.86 1.44,-1.86 0.86,0 1.42,-1.29 1.42,-2.86 0,-1.56 0.57,-3.99 1.28,-5.42 0.73,-1.29 3.71,-7.42 6.57,-13.56l5.14 -10.98 7.85 0c4.27,0 7.7,0.71 7.7,1.42zm-939.73 24.27c0.43,0.71 2.42,1.42 4.42,1.42 3.15,0 5.29,0.71 11.99,4.42 1.15,0.73 4.14,2.29 6.71,3.58 8.99,4.42 28.98,26.25 28.98,31.53 0,1.01 0.56,1.86 1.13,1.86 0.58,0 1.85,2.99 2.86,6.7 1.13,3.86 2.57,8.15 3.43,9.56 1.99,3.71 1.99,43.39 -0.15,45.54 -0.86,0.84 -1.57,3.41 -1.57,5.55 0,2.15 -0.58,3.99 -1.43,3.99 -0.71,0 -1.42,0.86 -1.42,2 0,6.99 -18.42,29.68 -30.69,37.68 -8.56,5.56 -12.12,7.43 -15.12,7.43 -1.44,0 -2.86,0.57 -3.29,1.28 -0.85,1.42 -14.69,3.43 -22.97,3.43 -8.56,-0.15 -20.7,-2.01 -21.55,-3.43 -0.43,-0.71 -2,-1.28 -3.43,-1.28 -2.86,0 -11.97,-4.57 -15.83,-8 -1.14,-1.14 -2.86,-2 -3.44,-2 -1.56,0 -17.82,-15.83 -17.82,-17.27 0,-0.55 -2.29,-4.27 -5,-8.41 -2.72,-4.13 -5,-8.57 -5,-9.99 0,-1.57 -0.57,-3 -1.28,-3.43 -2,-1.29 -3.28,-10.42 -3.99,-29.96 -0.43,-11.84 0,-18.99 0.86,-19.84 0.85,-0.86 1.56,-3.01 1.56,-4.85 0,-1.87 0.56,-4.42 1.29,-5.86 0.71,-1.28 2.98,-5.98 5.27,-10.27 5.28,-10.42 14.42,-20.98 24.54,-28.4 8.28,-6.13 12.57,-8.28 25.27,-12.7 5.56,-1.86 34.53,-2.14 35.67,-0.28l0 0zm388.18 0c0.43,0.71 1.99,1.42 3.56,1.42 2.42,0 16.84,6.71 18.55,8.56 0.43,0.43 2.71,2.29 5.13,3.86 13,9.14 24.26,25.82 30.54,45.23 2.3,7 2.3,43.39 0.15,45.54 -0.86,0.84 -1.56,2.55 -1.56,3.71 0,5.83 -11.01,24.11 -19.99,33.24 -10.28,10.56 -17.83,15.41 -32.11,21.11 -6.57,2.58 -25.68,4.44 -30.68,2.87 -2.72,-0.72 -6.99,-1.43 -9.56,-1.43 -2.43,0 -5,-0.71 -5.43,-1.44 -0.43,-0.84 -2.14,-1.41 -3.71,-1.41 -4.42,0 -18.12,-9.29 -27.97,-18.99 -4.99,-4.84 -8.98,-9.26 -8.98,-9.99 0,-0.71 -1.87,-3.99 -4.29,-7.42 -2.28,-3.41 -4.27,-7.55 -4.27,-9.14 0,-1.57 -0.58,-3.13 -1.29,-3.56 -3.43,-2.14 -5.71,-42.1 -3,-51.52 7.42,-24.97 22.11,-43.52 43.24,-54.5 4.85,-2.58 10.27,-4.72 11.99,-4.72 1.71,0 3.56,-0.71 3.99,-1.42 0.58,-0.85 8.13,-1.43 17.84,-1.43 9.7,0 17.27,0.58 17.85,1.43l0 0zm399.57 0c0.43,0.71 1.99,1.42 3.43,1.42 8.56,0 28.83,15.7 34.38,26.55 1.16,2.28 2.45,4.42 2.87,4.85 0.41,0.43 1.42,2.57 2.28,5 0.86,2.27 2.14,5.42 2.7,6.69 0.73,1.87 0.15,2.87 -2.27,4.01 -1.87,0.71 -4.42,2.14 -5.71,3.13 -2.85,2 -6.86,0.58 -7.85,-2.7 -0.43,-1.44 -1.43,-3.71 -2.14,-5 -0.71,-1.43 -1.29,-3.28 -1.29,-4.14 0,-3 -10.55,-14.41 -16.99,-18.12 -9.54,-5.71 -15.55,-7.42 -25.11,-7.42 -30.82,0 -49.66,25.97 -49.51,67.78 0.13,13.27 1.72,26.83 3.28,28.39 0.71,0.86 1.29,2.58 1.29,4.01 0,2.71 0.99,4.85 7.42,15.55 4.12,6.72 14.83,15.56 18.83,15.56 1.29,0 2.28,0.57 2.28,1.43 0,1.85 32.41,1.85 33.54,0 0.43,-0.86 2.15,-1.43 3.71,-1.43 1.42,0 2.71,-0.71 2.71,-1.42 0,-0.86 0.86,-1.44 1.86,-1.44 2.43,0 13.84,-10.7 13.84,-12.98 0,-1.15 1.29,-3.58 2.85,-5.57 1.57,-2 2.85,-4.57 2.85,-5.71 0,-1.13 1.01,-3.28 2.15,-4.84 1.86,-2.58 2.29,-2.58 6.84,-0.43 8.58,4.14 9.01,5.7 4.44,14.84 -2.29,4.57 -4.57,8.41 -5.15,8.71 -0.71,0.28 -1.13,1.26 -1.13,2.27 0,3 -14.7,15.98 -22.12,19.26 -3.86,1.87 -8.71,4.14 -10.57,5 -4.57,2.14 -41.1,1.86 -43.24,-0.28 -0.99,-1.01 -3.13,-1.71 -5,-1.71 -1.84,0 -3.28,-0.43 -3.28,-1.14 0,-0.58 -2.7,-2.15 -6.14,-3.58 -3.28,-1.27 -9.84,-6.14 -14.54,-10.71 -10.14,-9.69 -12.14,-11.98 -16.28,-20.39 -6.56,-12.7 -7.27,-14.42 -7.27,-17.7 0,-1.86 -0.58,-3.86 -1.44,-4.29 -0.85,-0.56 -1.41,-9.27 -1.41,-21.4 0,-12.12 0.56,-20.83 1.41,-21.41 0.86,-0.43 1.44,-2.27 1.44,-4.14 0,-2.7 5.13,-13.98 11.56,-25.12 2.85,-4.99 18.26,-19.97 20.55,-19.97 0.99,0 2.14,-0.42 2.42,-1.13 0.71,-1.72 15.42,-8.86 18.28,-8.86 1.56,0 3.13,-0.71 3.56,-1.44 0.58,-0.83 8.13,-1.41 17.84,-1.41 9.7,0 17.27,0.58 17.83,1.41l0 0.02zm557.99 0c0.43,0.71 2.14,1.42 3.58,1.42 2.98,0 19.39,8.43 24.54,12.57 7.7,6.13 18.12,18.25 21.25,24.69 1.87,3.84 3.86,6.99 4.57,6.99 0.58,0 1.01,1.28 1.01,2.7 0,1.57 0.56,3.13 1.29,3.56 0.7,0.43 1.71,3.58 2.27,6.86 1.44,8.13 1.44,39.24 0.15,44.66 -2.85,11.43 -12.27,29.56 -18.98,36.83 -7.42,7.85 -26.98,20.98 -31.25,20.98 -1.14,0 -3.15,0.57 -4.57,1.28 -4.85,2.57 -23.7,4.57 -28.83,3 -2.72,-0.72 -7.14,-1.43 -9.71,-1.43 -2.56,0 -5.71,-0.58 -7.13,-1.29 -1.28,-0.71 -6.13,-3.13 -10.7,-5.28 -13.56,-6.56 -36.68,-32.81 -36.68,-41.39 0,-1.14 -0.57,-2 -1.43,-2 -0.71,0 -1.42,-1.84 -1.42,-3.99 0,-2.14 -0.73,-4.69 -1.72,-5.7 -2.42,-2.43 -2.42,-42.38 0,-44.81 0.99,-1 1.72,-3.15 1.72,-5 0,-1.71 1.29,-5.42 2.85,-8.27 1.57,-2.86 2.86,-5.86 2.86,-7 0,-1 1.56,-3.28 3.56,-5.14 1.99,-1.85 3.58,-3.99 3.58,-4.85 0,-0.86 3.71,-5.13 8.26,-9.42 7.42,-7.27 21.98,-15.55 33.82,-19.69 5.71,-1.86 35.97,-2.14 37.11,-0.28l0 0zm-746.36 7.83l0 7.15 -27.41 0.42c-15.12,0.15 -27.69,0.43 -27.82,0.71 -0.29,0.15 -0.7,33.4 -1.13,73.79l-0.73 73.5 -11.41 0.43c-6.29,0.28 -12.85,0 -14.57,-0.43l-3.28 -0.73 -0.28 -73.2 -0.43 -73.06 -27.82 -0.73 -27.83 -0.7 -0.43 -5.56c-0.86,-10.14 -6.42,-9.42 72.06,-9.14l71.08 0.43 0 7.12 0 0zm58.94 74.51l0.28 81.77 -27.11 0 0 -164.26 13.26 0.43 13.15 0.43 0.42 81.63 0 0zm449.25 -79.78c1.57,0.72 5.71,2.72 9.27,4.44 13.27,6.13 22.69,17.11 26.25,30.67 2.42,9.41 2.72,14.56 0.73,15.85 -0.73,0.43 -1.44,2.27 -1.44,4.14 0,7.27 -11.84,22.39 -21.68,27.39l-4.29 2.27 6.13 6.01c3.43,3.43 6.99,7.7 7.85,9.56 3,6.27 4.57,10.41 7.7,19.11 1.72,4.72 4.29,11.71 5.73,15.71 1.69,4.84 5.41,9.99 11.26,15.84 4.85,4.7 8.28,9.12 7.7,9.55 -0.41,0.58 -8.69,1.01 -18.25,1.01 -19.69,0 -19.13,0.28 -24.84,-12.14 -1.85,-3.99 -3.86,-8.26 -4.57,-9.55 -0.71,-1.43 -1.29,-3.86 -1.29,-5.27 0,-1.59 -0.55,-3.3 -1.41,-3.71 -0.71,-0.43 -1.44,-2.3 -1.44,-4.01 0,-1.72 -0.99,-4.42 -2.14,-5.86 -1.14,-1.57 -2.13,-4.14 -2.28,-5.7 -0.28,-5.43 -7.57,-16.97 -12.42,-19.69 -6.41,-3.57 -41.24,-5.86 -42.38,-2.86 -0.43,1.14 -0.71,16.99 -0.71,35.39l0 33.55 -14.56 -0.43 -14.69 -0.43 -0.43 -79.79c-0.28,-62.35 0.15,-80.19 1.41,-81.91 1.59,-1.85 7.3,-2 41.98,-1.29 22.11,0.43 41.37,1.44 42.81,2.15l0 0zm108.32 79.49l0 81.35 -27.13 0 -0.43 -79.92c-0.13,-43.95 0,-80.77 0.43,-81.78 0.42,-1.27 4.13,-1.7 13.85,-1.42l13.28 0.43 0 81.34z"/>
 </g>
</svg>
