<?xml version="1.0" encoding="UTF-8"?>
<!DOCTYPE svg PUBLIC "-//W3C//DTD SVG 1.0//EN" "http://www.w3.org/TR/2001/REC-SVG-20010904/DTD/svg10.dtd">
<!-- Creator: CorelDRAW -->
<svg xmlns="http://www.w3.org/2000/svg" xml:space="preserve" width="0.8466mm" height="0.8466mm" version="1.0" style="shape-rendering:geometricPrecision; text-rendering:geometricPrecision; image-rendering:optimizeQuality; fill-rule:evenodd; clip-rule:evenodd"
viewBox="0 0 84.66 84.66"
 xmlns:xlink="http://www.w3.org/1999/xlink"
 xmlns:xodm="http://www.corel.com/coreldraw/odm/2003">
 <defs>
  <style type="text/css">
   <![CDATA[
    .fil0 {fill:#727376;fill-rule:nonzero}
   ]]>
  </style>
 </defs>
 <g id="Camada_x0020_1">
  <metadata id="CorelCorpID_0Corel-Layer"/>
  <g id="_2424109542416">
   <g>
    <path class="fil0" d="M13.5 8.78c-2.25,0.75 -3.91,2.43 -4.69,4.75 -0.53,1.54 -0.43,3.68 0.23,5.17 1.13,2.53 3.93,4.36 6.71,4.37 0.69,0 1.03,0.15 2.18,0.91 3.4,2.28 7.17,6.64 11.21,13.02l1.26 1.98 -0.52 0.94c-1.11,2.09 -1.56,5.33 -1.04,7.81 0.33,1.65 1.59,4 2.9,5.4l1.17 1.28 -0.46 2.09c-0.58,2.58 -1.59,5.22 -2.76,7.15 -1.22,2.04 -1.42,2.22 -2.68,2.45 -4.03,0.71 -5.65,5.65 -2.78,8.5 1.38,1.38 3.81,1.88 5.53,1.11 3.24,-1.43 4.09,-5.57 1.66,-8.13 -0.53,-0.56 -0.53,-0.58 -0.33,-1.48 0.67,-2.87 3.08,-6.43 5.91,-8.74l0.85 -0.67 1.99 0.02c2.07,0.03 3.38,-0.2 4.87,-0.87l0.76 -0.33 0.85 0.67c0.88,0.71 1.91,1.86 3.2,3.58 0.73,0.99 0.73,0.99 0.47,1.63 -0.36,0.83 -0.34,1.29 0.07,2.17 0.24,0.55 0.53,0.84 1.11,1.12 0.98,0.46 1.42,0.46 2.37,0 0.55,-0.27 0.86,-0.57 1.12,-1.12 0.46,-0.93 0.46,-1.4 0,-2.33 -0.39,-0.82 -1.43,-1.49 -2.3,-1.49 -0.75,0 -2.45,-1.99 -3.95,-4.57l-0.64 -1.13 0.83 -0.94c2.04,-2.29 2.89,-4.43 3.01,-7.66l0.11 -2.17 1.88 -1.81c2.62,-2.55 7.03,-5.76 9.88,-7.19l0.73 -0.39 1.01 0.62c1.29,0.78 2.51,1.04 4.28,0.94 2.68,-0.16 4.96,-1.72 6.13,-4.18 0.53,-1.1 0.57,-1.33 0.57,-3.05 0,-1.72 -0.04,-1.95 -0.57,-3.05 -1.1,-2.32 -3.08,-3.82 -5.58,-4.25 -3.86,-0.63 -7.58,2.04 -8.3,5.97 -0.11,0.59 -0.24,1.22 -0.27,1.42 -0.11,0.62 -2.89,4.16 -4.75,6.07 -1.96,2.02 -4.04,3.67 -5.58,4.47l-1.01 0.49 -0.92 -1.16c-0.81,-1.03 -1.5,-1.65 -3.43,-3.09l-0.41 -0.28 0.32 -1.52c0.18,-0.85 0.57,-2.27 0.9,-3.17 0.52,-1.49 0.62,-1.63 1.01,-1.6 0.23,0.02 0.89,-0.03 1.47,-0.14 1.01,-0.18 1.05,-0.18 1.54,0.3 0.29,0.27 0.52,0.59 0.52,0.71 0,0.66 1.29,0.74 1.5,0.09 0.16,-0.53 -0.09,-0.89 -0.8,-1.08 -1.11,-0.3 -1.2,-0.59 -0.46,-1.45 0.71,-0.84 1,-1.62 1,-2.8 0,-0.87 -0.52,-2.16 -1.1,-2.78 -0.32,-0.34 -0.36,-0.52 -0.23,-1.6 0.16,-1.57 0.53,-3.08 1.1,-4.35 0.37,-0.8 0.53,-1.01 0.86,-1.01 1.05,0 2.06,-0.75 2.39,-1.72 0.77,-2.31 -2.03,-4.18 -3.89,-2.61 -1.03,0.87 -1.14,2.39 -0.25,3.46l0.46 0.55 -0.32 0.94c-0.18,0.53 -0.76,1.86 -1.31,2.95l-0.99 2 -1.15 0.11c-1.26,0.11 -1.99,0.41 -2.62,1.1 -0.45,0.48 -0.36,0.48 -3.67,0.11 -2.51,-0.29 -3.06,-0.46 -3.19,-1.07 -0.16,-0.72 -1.02,-1.52 -1.89,-1.77 -2.39,-0.64 -4.27,2.43 -2.59,4.23 1.19,1.26 3,1.23 4.02,-0.07l0.39 -0.47 1.38 0.21c0.77,0.1 2.02,0.39 2.78,0.6 1.4,0.41 1.4,0.41 1.35,0.97 -0.11,1 0.44,2.45 1.2,3.25l0.7 0.72 -0.64 1.28c-0.71,1.4 -1.77,3.06 -2.59,3.98l-0.53 0.62 -1.52 -0.05c-0.83,-0.02 -1.93,0.05 -2.43,0.14 -0.83,0.16 -1.04,0.12 -2.48,-0.41 -3.63,-1.38 -5.6,-2.58 -7.88,-4.87 -2.23,-2.23 -3.81,-4.8 -5.01,-8.13l-0.46 -1.31 0.37 -1.24c1.06,-3.49 -0.55,-7.15 -3.88,-8.75 -0.85,-0.42 -1.27,-0.49 -2.78,-0.55 -1.13,-0.03 -2.04,0.04 -2.48,0.18l0 0z"/>
    <path class="fil0" d="M54.41 22.4c-0.48,0.27 -0.62,0.5 -0.62,1.05 0,0.56 0.5,1.04 1.08,1.04 0.53,0 0.76,-0.16 1.03,-0.65 0.28,-0.55 0.25,-0.73 -0.25,-1.21 -0.48,-0.49 -0.71,-0.53 -1.24,-0.23l0 0z"/>
   </g>
  </g>
 </g>
</svg>
