<?xml version="1.0" encoding="UTF-8"?>
<!DOCTYPE svg PUBLIC "-//W3C//DTD SVG 1.0//EN" "http://www.w3.org/TR/2001/REC-SVG-20010904/DTD/svg10.dtd">
<!-- Creator: CorelDRAW -->
<svg xmlns="http://www.w3.org/2000/svg" xml:space="preserve" width="0.8466mm" height="0.8466mm" version="1.0" style="shape-rendering:geometricPrecision; text-rendering:geometricPrecision; image-rendering:optimizeQuality; fill-rule:evenodd; clip-rule:evenodd"
viewBox="0 0 84.66 84.66"
 xmlns:xlink="http://www.w3.org/1999/xlink"
 xmlns:xodm="http://www.corel.com/coreldraw/odm/2003">
 <defs>
  <style type="text/css">
   <![CDATA[
    .fil0 {fill:#727376;fill-rule:nonzero}
    .fil1 {fill:#727376;fill-rule:nonzero;fill-opacity:0.050980}
    .fil3 {fill:#727376;fill-rule:nonzero;fill-opacity:0.160784}
    .fil2 {fill:#727376;fill-rule:nonzero;fill-opacity:0.180392}
    .fil5 {fill:#727376;fill-rule:nonzero;fill-opacity:0.200000}
    .fil4 {fill:#727376;fill-rule:nonzero;fill-opacity:0.219608}
    .fil6 {fill:#727376;fill-rule:nonzero;fill-opacity:0.321569}
    .fil7 {fill:#727376;fill-rule:nonzero;fill-opacity:0.458824}
    .fil8 {fill:#727376;fill-rule:nonzero;fill-opacity:0.490196}
   ]]>
  </style>
 </defs>
 <g id="Camada_x0020_1">
  <metadata id="CorelCorpID_0Corel-Layer"/>
  <g id="_2424510237216">
   <path class="fil0" d="M42.8 12.41c-4.35,2.52 -10.17,5.89 -12.96,7.49l-5.06 2.93 1.88 0.05 1.9 0.06 5.11 -2.97c13.19,-7.61 16.44,-9.48 16.55,-9.48 0.07,0 0.85,1.26 1.74,2.81 0.88,1.52 3.83,6.64 6.55,11.36 2.71,4.7 5,8.5 5.05,8.43 0.15,-0.18 0.54,-1.92 0.54,-2.38 0,-0.46 -12.94,-22.88 -13.21,-22.88 -0.11,0 -3.74,2.06 -8.09,4.58zm28.68 32.79l-0.32 1.35 1.03 1.81c0.55,0.99 1.14,1.98 1.26,2.18 0.23,0.35 0.14,0.43 -1.86,1.6l-2.12 1.2 -0.3 1.23c-0.16,0.69 -0.26,1.26 -0.23,1.3 0.06,0.05 7.05,-3.95 7.26,-4.18 0.13,-0.1 -3.87,-7.29 -4.28,-7.7 -0.07,-0.07 -0.26,0.48 -0.44,1.21l0 0zm-56.55 1.35c0,0.12 0.78,1.56 1.72,3.19l1.74 3 1.12 0c0.62,0 1.1,-0.07 1.06,-0.14 -0.01,-0.09 -0.83,-1.53 -1.81,-3.2l-1.75 -3.05 -1.03 0c-0.68,0 -1.05,0.07 -1.05,0.2l0 0zm8.29 14.59c0.07,0.14 2.15,3.71 4.58,7.93 2.45,4.23 4.52,7.71 4.65,7.76 0.11,0.04 5.13,-2.77 11.18,-6.27 6.04,-3.49 12.23,-7.06 13.77,-7.95l2.81 -1.61 -1.9 -0.06 -1.9 -0.05 -11.47 6.62c-6.3,3.64 -11.57,6.62 -11.69,6.62 -0.11,0 -1.92,-2.96 -4.01,-6.57l-3.78 -6.56 -1.19 -0.06c-1,-0.03 -1.18,0 -1.05,0.2l0 0z"/>
   <path class="fil1" d="M15.43 46.3c0.32,0.03 0.8,0.03 1.06,0 0.27,-0.04 0,-0.07 -0.58,-0.07 -0.59,0 -0.8,0.03 -0.48,0.07z"/>
   <path class="fil1" d="M25.63 23.04c0.55,0.04 1.48,0.04 2.04,0 0.55,-0.03 0.09,-0.05 -1.03,-0.05 -1.11,0 -1.58,0.02 -1.01,0.05z"/>
   <path class="fil0" d="M13.92 24.52c-2.24,0.46 -3.98,2.27 -4.97,5.23 -0.45,1.32 -0.48,1.65 -0.48,4.35 -0.02,2.54 0.03,3.13 0.39,4.35 0.87,3.04 2.31,5.2 4.03,6.04 0.65,0.32 1.15,0.35 6.57,0.4 6.47,0.06 6.19,0 6.83,1.28 0.92,1.85 0.92,5.1 -0.02,6.96 -0.64,1.26 -0.32,1.21 -8.36,1.21l-7.24 0 0 4.97 9.11 0c10.29,0 10.18,0.02 11.55,-1.31 0.87,-0.86 1.69,-2.45 2.15,-4.19 0.46,-1.73 0.57,-6.06 0.19,-8.01 -0.33,-1.83 -1.01,-3.85 -1.59,-4.86 -0.61,-1.02 -1.9,-2.15 -2.7,-2.38 -0.43,-0.13 -2.9,-0.2 -6.41,-0.2 -3.14,0 -5.84,-0.05 -6,-0.1 -0.16,-0.08 -0.43,-0.41 -0.6,-0.77 -1.09,-2.09 -0.87,-6.28 0.37,-7.6l0.37 -0.4 12.91 0 0 -2.19c0,-1.19 -0.06,-2.34 -0.11,-2.57l-0.11 -0.39 -7.58 0.02c-4.15,0.01 -7.89,0.08 -8.3,0.16l0 0z"/>
   <path class="fil0" d="M29.86 24.62c0,0.2 0.05,0.25 0.1,0.11 0.06,-0.13 0.04,-0.29 -0.01,-0.34 -0.06,-0.07 -0.11,0.04 -0.09,0.23l0 0z"/>
   <path class="fil0" d="M30.02 24.46c0,0.09 1.93,7.96 4.29,17.49l4.32 17.36 10.17 0 0.17 -0.85c0.11,-0.46 0.93,-4.78 1.83,-9.57 0.91,-4.81 1.69,-8.7 1.74,-8.65 0.05,0.06 0.91,4.35 1.9,9.54l1.78 9.44 10.25 0 1.41 -5.68c0.76,-3.12 2.71,-10.92 4.29,-17.31 1.6,-6.39 2.84,-11.68 2.77,-11.77 -0.07,-0.07 -1.88,-0.1 -4.03,-0.09l-3.88 0.06 -0.91 4.26c-0.5,2.34 -1.31,6.17 -1.81,8.52 -0.5,2.34 -1.37,6.44 -1.92,9.09 -0.57,2.66 -1.08,4.79 -1.13,4.7 -0.07,-0.07 -1.46,-5.84 -3.09,-12.82 -1.64,-6.97 -3.04,-12.94 -3.11,-13.22l-0.12 -0.53 -2.35 -0.06c-2.3,-0.05 -2.34,-0.03 -2.48,0.36 -0.09,0.23 -1.54,6.27 -3.23,13.42 -1.99,8.36 -3.14,12.9 -3.23,12.69 -0.07,-0.18 -1.33,-6.07 -2.81,-13.1 -1.47,-7.03 -2.71,-12.92 -2.76,-13.1 -0.09,-0.27 -0.45,-0.3 -4.09,-0.3 -2.18,0 -3.97,0.05 -3.97,0.12l0 0z"/>
   <path class="fil1" d="M17.36 45.05c1.4,0.04 3.68,0.04 5.08,0 1.38,-0.01 0.25,-0.05 -2.54,-0.05 -2.79,0 -3.92,0.04 -2.54,0.05l0 0z"/>
   <path class="fil2" d="M20.49 29.61c1.72,0.04 4.56,0.04 6.3,0 1.72,-0.02 0.3,-0.04 -3.16,-0.04 -3.46,0 -4.88,0.02 -3.14,0.04z"/>
   <path class="fil3" d="M20.22 38.31c1.49,0.03 3.89,0.03 5.32,0 1.44,-0.02 0.22,-0.05 -2.71,-0.05 -2.93,0 -4.1,0.03 -2.61,0.05z"/>
   <path class="fil4" d="M14.08 54.29c1.91,0.03 5.11,0.03 7.1,0 1.99,-0.02 0.41,-0.04 -3.5,-0.04 -3.9,0 -5.52,0.02 -3.6,0.04z"/>
   <path class="fil5" d="M14.98 59.43c2.42,0.04 6.36,0.04 8.79,0 2.41,-0.01 0.42,-0.03 -4.4,-0.03 -4.83,0 -6.82,0.02 -4.39,0.03z"/>
   <path class="fil5" d="M41.16 59.43c1.39,0.04 3.66,0.04 5.06,0 1.39,-0.01 0.25,-0.05 -2.54,-0.05 -2.78,0 -3.92,0.04 -2.52,0.05zm17.75 0c1.41,0.04 3.64,0.04 4.97,0 1.33,-0.01 0.2,-0.05 -2.53,-0.05 -2.74,0 -3.84,0.04 -2.44,0.05z"/>
   <path class="fil6" d="M10.56 56.73c0,1.37 0.04,1.9 0.06,1.19 0.03,-0.71 0.03,-1.82 0,-2.48 -0.04,-0.66 -0.06,-0.07 -0.06,1.29z"/>
   <path class="fil7" d="M19.42 52.87c0.16,0.03 0.41,0.03 0.53,0 0.11,-0.06 -0.02,-0.09 -0.32,-0.09 -0.28,0 -0.39,0.03 -0.21,0.09z"/>
   <path class="fil8" d="M23.77 60.85c0.32,0.04 0.8,0.04 1.06,0 0.27,-0.03 0,-0.07 -0.58,-0.07 -0.59,0 -0.8,0.04 -0.48,0.07zm33.72 0c0.52,0.04 1.32,0.04 1.78,0 0.46,-0.03 0.03,-0.05 -0.94,-0.05 -0.98,0 -1.35,0.02 -0.84,0.05z"/>
  </g>
 </g>
</svg>
